<svg version="1.1" viewBox="0.0 0.0 600.0 371.0" fill="none" stroke="none" stroke-linecap="square" stroke-miterlimit="10" width="600" height="371" xmlns:xlink="http://www.w3.org/1999/xlink" xmlns="http://www.w3.org/2000/svg"><path fill="#ffffff" d="M0 0L600.0 0L600.0 371.0L0 371.0L0 0Z" fill-rule="nonzero"/><path stroke="#333333" stroke-width="1.0" stroke-linecap="butt" d="M75.5 304.5L581.5 304.5" fill-rule="nonzero"/><path stroke="#cccccc" stroke-width="1.0" stroke-linecap="butt" d="M75.5 234.5L581.5 234.5" fill-rule="nonzero"/><path stroke="#cccccc" stroke-width="1.0" stroke-linecap="butt" d="M75.5 165.5L581.5 165.5" fill-rule="nonzero"/><path stroke="#cccccc" stroke-width="1.0" stroke-linecap="butt" d="M75.5 95.5L581.5 95.5" fill-rule="nonzero"/><path stroke="#cccccc" stroke-width="1.0" stroke-linecap="butt" d="M75.5 25.5L581.5 25.5" fill-rule="nonzero"/><path stroke="#e6e6e6" stroke-width="1.0" stroke-linecap="butt" d="M75.5 281.5L581.5 281.5" fill-rule="nonzero"/><path stroke="#e6e6e6" stroke-width="1.0" stroke-linecap="butt" d="M75.5 257.5L581.5 257.5" fill-rule="nonzero"/><path stroke="#e6e6e6" stroke-width="1.0" stroke-linecap="butt" d="M75.5 211.5L581.5 211.5" fill-rule="nonzero"/><path stroke="#e6e6e6" stroke-width="1.0" stroke-linecap="butt" d="M75.5 188.5L581.5 188.5" fill-rule="nonzero"/><path stroke="#e6e6e6" stroke-width="1.0" stroke-linecap="butt" d="M75.5 141.5L581.5 141.5" fill-rule="nonzero"/><path stroke="#e6e6e6" stroke-width="1.0" stroke-linecap="butt" d="M75.5 118.5L581.5 118.5" fill-rule="nonzero"/><path stroke="#e6e6e6" stroke-width="1.0" stroke-linecap="butt" d="M75.5 72.5L581.5 72.5" fill-rule="nonzero"/><path stroke="#e6e6e6" stroke-width="1.0" stroke-linecap="butt" d="M75.5 48.5L581.5 48.5" fill-rule="nonzero"/><path stroke="#000000" stroke-width="1.0" stroke-linecap="butt" d="M75.5 304.5L75.5 25.5" fill-rule="nonzero"/><clipPath id="id_0"><path d="M75.55 25.55L581.45 25.55L581.45 304.45L75.55 304.45L75.55 25.55Z" clip-rule="nonzero"/></clipPath><path stroke="#000000" stroke-width="2.0" stroke-linecap="butt" stroke-opacity="0.0" clip-path="url(#id_0)" d="M170.0 304.0L109.0 304.0L109.0 242.0C109.0 240.89543 109.89543 240.0 111.0 240.0L168.0 240.0C169.10457 240.0 170.0 240.89543 170.0 242.0Z" fill-rule="nonzero"/><path fill="#4285f4" clip-path="url(#id_0)" d="M170.0 304.0L109.0 304.0L109.0 242.0C109.0 240.89543 109.89543 240.0 111.0 240.0L168.0 240.0C169.10457 240.0 170.0 240.89543 170.0 242.0Z" fill-rule="nonzero"/><path stroke="#000000" stroke-width="2.0" stroke-linecap="butt" stroke-opacity="0.0" clip-path="url(#id_0)" d="M265.0 304.0L204.0 304.0L204.0 289.0C204.0 287.89542 204.89543 287.0 206.0 287.0L263.0 287.0C264.10458 287.0 265.0 287.89542 265.0 289.0Z" fill-rule="nonzero"/><path fill="#4285f4" clip-path="url(#id_0)" d="M265.0 304.0L204.0 304.0L204.0 289.0C204.0 287.89542 204.89543 287.0 206.0 287.0L263.0 287.0C264.10458 287.0 265.0 287.89542 265.0 289.0Z" fill-rule="nonzero"/><path stroke="#000000" stroke-width="2.0" stroke-linecap="butt" stroke-opacity="0.0" clip-path="url(#id_0)" d="M360.0 304.0L299.0 304.0L299.0 90.0C299.0 88.89543 299.89542 88.0 301.0 88.0L358.0 88.0C359.10458 88.0 360.0 88.89543 360.0 90.0Z" fill-rule="nonzero"/><path fill="#4285f4" clip-path="url(#id_0)" d="M360.0 304.0L299.0 304.0L299.0 90.0C299.0 88.89543 299.89542 88.0 301.0 88.0L358.0 88.0C359.10458 88.0 360.0 88.89543 360.0 90.0Z" fill-rule="nonzero"/><path stroke="#000000" stroke-width="2.0" stroke-linecap="butt" stroke-opacity="0.0" clip-path="url(#id_0)" d="M454.0 304.0L393.0 304.0L393.0 41.0C393.0 39.89543 393.89542 39.0 395.0 39.0L452.0 39.0C453.10458 39.0 454.0 39.89543 454.0 41.0Z" fill-rule="nonzero"/><path fill="#4285f4" fill-opacity="0.3019608" clip-path="url(#id_0)" d="M454.0 304.0L393.0 304.0L393.0 41.0C393.0 39.89543 393.89542 39.0 395.0 39.0L452.0 39.0C453.10458 39.0 454.0 39.89543 454.0 41.0Z" fill-rule="nonzero"/><path stroke="#000000" stroke-width="2.0" stroke-linecap="butt" stroke-opacity="0.0" clip-path="url(#id_0)" d="M549.0 304.0L488.0 304.0L488.0 133.0C488.0 131.89543 488.89542 131.0 490.0 131.0L547.0 131.0C548.10455 131.0 549.0 131.89543 549.0 133.0Z" fill-rule="nonzero"/><path fill="#4285f4" fill-opacity="0.3019608" clip-path="url(#id_0)" d="M549.0 304.0L488.0 304.0L488.0 133.0C488.0 131.89543 488.89542 131.0 490.0 131.0L547.0 131.0C548.10455 131.0 549.0 131.89543 549.0 133.0Z" fill-rule="nonzero"/><path stroke="#000000" stroke-width="1.0" stroke-linecap="butt" d="M72.5 281.5L78.5 281.5" fill-rule="nonzero"/><path stroke="#000000" stroke-width="1.0" stroke-linecap="butt" d="M72.5 257.5L78.5 257.5" fill-rule="nonzero"/><path stroke="#000000" stroke-width="1.0" stroke-linecap="butt" d="M72.5 211.5L78.5 211.5" fill-rule="nonzero"/><path stroke="#000000" stroke-width="1.0" stroke-linecap="butt" d="M72.5 188.5L78.5 188.5" fill-rule="nonzero"/><path stroke="#000000" stroke-width="1.0" stroke-linecap="butt" d="M72.5 141.5L78.5 141.5" fill-rule="nonzero"/><path stroke="#000000" stroke-width="1.0" stroke-linecap="butt" d="M72.5 118.5L78.5 118.5" fill-rule="nonzero"/><path stroke="#000000" stroke-width="1.0" stroke-linecap="butt" d="M72.5 72.5L78.5 72.5" fill-rule="nonzero"/><path stroke="#000000" stroke-width="1.0" stroke-linecap="butt" d="M72.5 48.5L78.5 48.5" fill-rule="nonzero"/><path stroke="#000000" stroke-width="1.0" stroke-linecap="butt" d="M69.5 304.5L81.5 304.5" fill-rule="nonzero"/><path stroke="#000000" stroke-width="1.0" stroke-linecap="butt" d="M69.5 234.5L81.5 234.5" fill-rule="nonzero"/><path stroke="#000000" stroke-width="1.0" stroke-linecap="butt" d="M69.5 165.5L81.5 165.5" fill-rule="nonzero"/><path stroke="#000000" stroke-width="1.0" stroke-linecap="butt" d="M69.5 95.5L81.5 95.5" fill-rule="nonzero"/><path stroke="#000000" stroke-width="1.0" stroke-linecap="butt" d="M69.5 25.5L81.5 25.5" fill-rule="nonzero"/><path fill="#000000" d="M57.05 304.21564Q57.05 302.6844 57.3625 301.7625Q57.675 300.825 58.284374 300.325Q58.909374 299.825 59.846874 299.825Q60.534374 299.825 61.05 300.10626Q61.58125 300.3875 61.925 300.91876Q62.26875 301.4344 62.45625 302.1844Q62.64375 302.9344 62.64375 304.21564Q62.64375 305.73126 62.33125 306.65314Q62.034374 307.575 61.409374 308.09064Q60.8 308.59064 59.846874 308.59064Q58.6125 308.59064 57.89375 307.7Q57.05 306.6375 57.05 304.21564ZM58.128124 304.21564Q58.128124 306.325 58.628124 307.02814Q59.128124 307.73126 59.846874 307.73126Q60.58125 307.73126 61.065624 307.02814Q61.565624 306.325 61.565624 304.21564Q61.565624 302.09064 61.065624 301.40314Q60.58125 300.7 59.83125 300.7Q59.1125 300.7 58.675 301.3094Q58.128124 302.09064 58.128124 304.21564Z" fill-rule="nonzero"/><path fill="#000000" d="M31.596874 237.70938L31.596874 238.725L25.909374 238.725Q25.909374 238.35 26.034374 237.99063Q26.253124 237.4125 26.721874 236.85Q27.20625 236.2875 28.1125 235.55313Q29.51875 234.39688 30.003124 233.725Q30.503124 233.05313 30.503124 232.45938Q30.503124 231.83438 30.05 231.4125Q29.596874 230.975 28.878124 230.975Q28.1125 230.975 27.659374 231.42813Q27.20625 231.88126 27.190624 232.69376L26.1125 232.58438Q26.221874 231.36563 26.940624 230.74063Q27.675 230.1 28.909374 230.1Q30.14375 230.1 30.8625 230.7875Q31.58125 231.475 31.58125 232.49063Q31.58125 233.00626 31.3625 233.50626Q31.159374 233.99063 30.659374 234.55313Q30.175 235.1 29.05 236.05313Q28.096874 236.85 27.815624 237.14688Q27.55 237.42813 27.378124 237.70938L31.596874 237.70938ZM33.05 236.475L34.159374 236.38126Q34.284374 237.19376 34.721874 237.6Q35.175 238.00626 35.815624 238.00626Q36.565624 238.00626 37.096874 237.42813Q37.628124 236.85 37.628124 235.9125Q37.628124 235.00626 37.1125 234.49063Q36.6125 233.95938 35.784374 233.95938Q35.284374 233.95938 34.8625 234.19376Q34.45625 234.42813 34.221874 234.7875L33.2375 234.6625L34.065624 230.25626L38.346874 230.25626L38.346874 231.25626L34.909374 231.25626L34.45625 233.56876Q35.221874 233.02188 36.065624 233.02188Q37.190624 233.02188 37.95625 233.80313Q38.7375 234.58438 38.7375 235.81876Q38.7375 236.975 38.065624 237.83438Q37.2375 238.86563 35.815624 238.86563Q34.64375 238.86563 33.89375 238.20938Q33.159374 237.55313 33.05 236.475ZM40.6125 238.725L40.6125 237.52188L41.815624 237.52188L41.815624 238.725Q41.815624 239.38126 41.58125 239.7875Q41.346874 240.20938 40.846874 240.42813L40.55 239.975Q40.878124 239.83438 41.034374 239.5375Q41.190624 239.25626 41.221874 238.725L40.6125 238.725ZM43.05 234.49063Q43.05 232.95938 43.3625 232.0375Q43.675 231.1 44.284374 230.6Q44.909374 230.1 45.846874 230.1Q46.534374 230.1 47.05 230.38126Q47.58125 230.6625 47.925 231.19376Q48.26875 231.70938 48.45625 232.45938Q48.64375 233.20938 48.64375 234.49063Q48.64375 236.00626 48.33125 236.92813Q48.034374 237.85 47.409374 238.36563Q46.8 238.86563 45.846874 238.86563Q44.6125 238.86563 43.89375 237.975Q43.05 236.9125 43.05 234.49063ZM44.128124 234.49063Q44.128124 236.6 44.628124 237.30313Q45.128124 238.00626 45.846874 238.00626Q46.58125 238.00626 47.065624 237.30313Q47.565624 236.6 47.565624 234.49063Q47.565624 232.36563 47.065624 231.67813Q46.58125 230.975 45.83125 230.975Q45.1125 230.975 44.675 231.58438Q44.128124 232.36563 44.128124 234.49063ZM50.05 234.49063Q50.05 232.95938 50.3625 232.0375Q50.675 231.1 51.284374 230.6Q51.909374 230.1 52.846874 230.1Q53.534374 230.1 54.05 230.38126Q54.58125 230.6625 54.925 231.19376Q55.26875 231.70938 55.45625 232.45938Q55.64375 233.20938 55.64375 234.49063Q55.64375 236.00626 55.33125 236.92813Q55.034374 237.85 54.409374 238.36563Q53.8 238.86563 52.846874 238.86563Q51.6125 238.86563 50.89375 237.975Q50.05 236.9125 50.05 234.49063ZM51.128124 234.49063Q51.128124 236.6 51.628124 237.30313Q52.128124 238.00626 52.846874 238.00626Q53.58125 238.00626 54.065624 237.30313Q54.565624 236.6 54.565624 234.49063Q54.565624 232.36563 54.065624 231.67813Q53.58125 230.975 52.83125 230.975Q52.1125 230.975 51.675 231.58438Q51.128124 232.36563 51.128124 234.49063ZM57.05 234.49063Q57.05 232.95938 57.3625 232.0375Q57.675 231.1 58.284374 230.6Q58.909374 230.1 59.846874 230.1Q60.534374 230.1 61.05 230.38126Q61.58125 230.6625 61.925 231.19376Q62.26875 231.70938 62.45625 232.45938Q62.64375 233.20938 62.64375 234.49063Q62.64375 236.00626 62.33125 236.92813Q62.034374 237.85 61.409374 238.36563Q60.8 238.86563 59.846874 238.86563Q58.6125 238.86563 57.89375 237.975Q57.05 236.9125 57.05 234.49063ZM58.128124 234.49063Q58.128124 236.6 58.628124 237.30313Q59.128124 238.00626 59.846874 238.00626Q60.58125 238.00626 61.065624 237.30313Q61.565624 236.6 61.565624 234.49063Q61.565624 232.36563 61.065624 231.67813Q60.58125 230.975 59.83125 230.975Q59.1125 230.975 58.675 231.58438Q58.128124 232.36563 58.128124 234.49063Z" fill-rule="nonzero"/><path fill="#000000" d="M26.05 166.75L27.159374 166.65625Q27.284374 167.46875 27.721874 167.875Q28.175 168.28125 28.815624 168.28125Q29.565624 168.28125 30.096874 167.70312Q30.628124 167.125 30.628124 166.1875Q30.628124 165.28125 30.1125 164.76562Q29.6125 164.23438 28.784374 164.23438Q28.284374 164.23438 27.8625 164.46875Q27.45625 164.70312 27.221874 165.0625L26.2375 164.9375L27.065624 160.53125L31.346874 160.53125L31.346874 161.53125L27.909374 161.53125L27.45625 163.84375Q28.221874 163.29688 29.065624 163.29688Q30.190624 163.29688 30.95625 164.07812Q31.7375 164.85938 31.7375 166.09375Q31.7375 167.25 31.065624 168.10938Q30.2375 169.14062 28.815624 169.14062Q27.64375 169.14062 26.89375 168.48438Q26.159374 167.82812 26.05 166.75ZM33.05 164.76562Q33.05 163.23438 33.3625 162.3125Q33.675 161.375 34.284374 160.875Q34.909374 160.375 35.846874 160.375Q36.534374 160.375 37.05 160.65625Q37.58125 160.9375 37.925 161.46875Q38.26875 161.98438 38.45625 162.73438Q38.64375 163.48438 38.64375 164.76562Q38.64375 166.28125 38.33125 167.20312Q38.034374 168.125 37.409374 168.64062Q36.8 169.14062 35.846874 169.14062Q34.6125 169.14062 33.89375 168.25Q33.05 167.1875 33.05 164.76562ZM34.128124 164.76562Q34.128124 166.875 34.628124 167.57812Q35.128124 168.28125 35.846874 168.28125Q36.58125 168.28125 37.065624 167.57812Q37.565624 166.875 37.565624 164.76562Q37.565624 162.64062 37.065624 161.95312Q36.58125 161.25 35.83125 161.25Q35.1125 161.25 34.675 161.85938Q34.128124 162.64062 34.128124 164.76562ZM40.6125 169.0L40.6125 167.79688L41.815624 167.79688L41.815624 169.0Q41.815624 169.65625 41.58125 170.0625Q41.346874 170.48438 40.846874 170.70312L40.55 170.25Q40.878124 170.10938 41.034374 169.8125Q41.190624 169.53125 41.221874 169.0L40.6125 169.0ZM43.05 164.76562Q43.05 163.23438 43.3625 162.3125Q43.675 161.375 44.284374 160.875Q44.909374 160.375 45.846874 160.375Q46.534374 160.375 47.05 160.65625Q47.58125 160.9375 47.925 161.46875Q48.26875 161.98438 48.45625 162.73438Q48.64375 163.48438 48.64375 164.76562Q48.64375 166.28125 48.33125 167.20312Q48.034374 168.125 47.409374 168.64062Q46.8 169.14062 45.846874 169.14062Q44.6125 169.14062 43.89375 168.25Q43.05 167.1875 43.05 164.76562ZM44.128124 164.76562Q44.128124 166.875 44.628124 167.57812Q45.128124 168.28125 45.846874 168.28125Q46.58125 168.28125 47.065624 167.57812Q47.565624 166.875 47.565624 164.76562Q47.565624 162.64062 47.065624 161.95312Q46.58125 161.25 45.83125 161.25Q45.1125 161.25 44.675 161.85938Q44.128124 162.64062 44.128124 164.76562ZM50.05 164.76562Q50.05 163.23438 50.3625 162.3125Q50.675 161.375 51.284374 160.875Q51.909374 160.375 52.846874 160.375Q53.534374 160.375 54.05 160.65625Q54.58125 160.9375 54.925 161.46875Q55.26875 161.98438 55.45625 162.73438Q55.64375 163.48438 55.64375 164.76562Q55.64375 166.28125 55.33125 167.20312Q55.034374 168.125 54.409374 168.64062Q53.8 169.14062 52.846874 169.14062Q51.6125 169.14062 50.89375 168.25Q50.05 167.1875 50.05 164.76562ZM51.128124 164.76562Q51.128124 166.875 51.628124 167.57812Q52.128124 168.28125 52.846874 168.28125Q53.58125 168.28125 54.065624 167.57812Q54.565624 166.875 54.565624 164.76562Q54.565624 162.64062 54.065624 161.95312Q53.58125 161.25 52.83125 161.25Q52.1125 161.25 51.675 161.85938Q51.128124 162.64062 51.128124 164.76562ZM57.05 164.76562Q57.05 163.23438 57.3625 162.3125Q57.675 161.375 58.284374 160.875Q58.909374 160.375 59.846874 160.375Q60.534374 160.375 61.05 160.65625Q61.58125 160.9375 61.925 161.46875Q62.26875 161.98438 62.45625 162.73438Q62.64375 163.48438 62.64375 164.76562Q62.64375 166.28125 62.33125 167.20312Q62.034374 168.125 61.409374 168.64062Q60.8 169.14062 59.846874 169.14062Q58.6125 169.14062 57.89375 168.25Q57.05 167.1875 57.05 164.76562ZM58.128124 164.76562Q58.128124 166.875 58.628124 167.57812Q59.128124 168.28125 59.846874 168.28125Q60.58125 168.28125 61.065624 167.57812Q61.565624 166.875 61.565624 164.76562Q61.565624 162.64062 61.065624 161.95312Q60.58125 161.25 59.83125 161.25Q59.1125 161.25 58.675 161.85938Q58.128124 162.64062 58.128124 164.76562Z" fill-rule="nonzero"/><path fill="#000000" d="M26.1125 91.80625L26.1125 90.79063L31.675 90.79063L31.675 91.61875Q30.8625 92.49375 30.05 93.94688Q29.253124 95.38438 28.815624 96.91563Q28.4875 97.99375 28.409374 99.275L27.315624 99.275Q27.33125 98.25938 27.70625 96.82188Q28.096874 95.38438 28.8 94.05625Q29.51875 92.72813 30.33125 91.80625L26.1125 91.80625ZM33.05 97.025L34.159374 96.93125Q34.284374 97.74375 34.721874 98.15Q35.175 98.55625 35.815624 98.55625Q36.565624 98.55625 37.096874 97.97813Q37.628124 97.4 37.628124 96.4625Q37.628124 95.55625 37.1125 95.04063Q36.6125 94.50938 35.784374 94.50938Q35.284374 94.50938 34.8625 94.74375Q34.45625 94.97813 34.221874 95.3375L33.2375 95.2125L34.065624 90.80625L38.346874 90.80625L38.346874 91.80625L34.909374 91.80625L34.45625 94.11875Q35.221874 93.57188 36.065624 93.57188Q37.190624 93.57188 37.95625 94.35313Q38.7375 95.13438 38.7375 96.36875Q38.7375 97.525 38.065624 98.38438Q37.2375 99.41563 35.815624 99.41563Q34.64375 99.41563 33.89375 98.75938Q33.159374 98.10313 33.05 97.025ZM40.6125 99.275L40.6125 98.07188L41.815624 98.07188L41.815624 99.275Q41.815624 99.93125 41.58125 100.3375Q41.346874 100.75938 40.846874 100.97813L40.55 100.525Q40.878124 100.38438 41.034374 100.0875Q41.190624 99.80625 41.221874 99.275L40.6125 99.275ZM43.05 95.04063Q43.05 93.50938 43.3625 92.5875Q43.675 91.65 44.284374 91.15Q44.909374 90.65 45.846874 90.65Q46.534374 90.65 47.05 90.93125Q47.58125 91.2125 47.925 91.74375Q48.26875 92.25938 48.45625 93.00938Q48.64375 93.75938 48.64375 95.04063Q48.64375 96.55625 48.33125 97.47813Q48.034374 98.4 47.409374 98.91563Q46.8 99.41563 45.846874 99.41563Q44.6125 99.41563 43.89375 98.525Q43.05 97.4625 43.05 95.04063ZM44.128124 95.04063Q44.128124 97.15 44.628124 97.85313Q45.128124 98.55625 45.846874 98.55625Q46.58125 98.55625 47.065624 97.85313Q47.565624 97.15 47.565624 95.04063Q47.565624 92.91563 47.065624 92.22813Q46.58125 91.525 45.83125 91.525Q45.1125 91.525 44.675 92.13438Q44.128124 92.91563 44.128124 95.04063ZM50.05 95.04063Q50.05 93.50938 50.3625 92.5875Q50.675 91.65 51.284374 91.15Q51.909374 90.65 52.846874 90.65Q53.534374 90.65 54.05 90.93125Q54.58125 91.2125 54.925 91.74375Q55.26875 92.25938 55.45625 93.00938Q55.64375 93.75938 55.64375 95.04063Q55.64375 96.55625 55.33125 97.47813Q55.034374 98.4 54.409374 98.91563Q53.8 99.41563 52.846874 99.41563Q51.6125 99.41563 50.89375 98.525Q50.05 97.4625 50.05 95.04063ZM51.128124 95.04063Q51.128124 97.15 51.628124 97.85313Q52.128124 98.55625 52.846874 98.55625Q53.58125 98.55625 54.065624 97.85313Q54.565624 97.15 54.565624 95.04063Q54.565624 92.91563 54.065624 92.22813Q53.58125 91.525 52.83125 91.525Q52.1125 91.525 51.675 92.13438Q51.128124 92.91563 51.128124 95.04063ZM57.05 95.04063Q57.05 93.50938 57.3625 92.5875Q57.675 91.65 58.284374 91.15Q58.909374 90.65 59.846874 90.65Q60.534374 90.65 61.05 90.93125Q61.58125 91.2125 61.925 91.74375Q62.26875 92.25938 62.45625 93.00938Q62.64375 93.75938 62.64375 95.04063Q62.64375 96.55625 62.33125 97.47813Q62.034374 98.4 61.409374 98.91563Q60.8 99.41563 59.846874 99.41563Q58.6125 99.41563 57.89375 98.525Q57.05 97.4625 57.05 95.04063ZM58.128124 95.04063Q58.128124 97.15 58.628124 97.85313Q59.128124 98.55625 59.846874 98.55625Q60.58125 98.55625 61.065624 97.85313Q61.565624 97.15 61.565624 95.04063Q61.565624 92.91563 61.065624 92.22813Q60.58125 91.525 59.83125 91.525Q59.1125 91.525 58.675 92.13438Q58.128124 92.91563 58.128124 95.04063Z" fill-rule="nonzero"/><path fill="#000000" d="M23.01875 29.55L21.971874 29.55L21.971874 22.83125Q21.58125 23.190624 20.95625 23.565624Q20.346874 23.925 19.8625 24.096874L19.8625 23.08125Q20.7375 22.659374 21.39375 22.08125Q22.065624 21.4875 22.346874 20.925L23.01875 20.925L23.01875 29.55ZM26.05 25.315624Q26.05 23.784374 26.3625 22.8625Q26.675 21.925 27.284374 21.425Q27.909374 20.925 28.846874 20.925Q29.534374 20.925 30.05 21.20625Q30.58125 21.4875 30.925 22.01875Q31.26875 22.534374 31.45625 23.284374Q31.64375 24.034374 31.64375 25.315624Q31.64375 26.83125 31.33125 27.753124Q31.034374 28.675 30.409374 29.190624Q29.8 29.690624 28.846874 29.690624Q27.6125 29.690624 26.89375 28.8Q26.05 27.7375 26.05 25.315624ZM27.128124 25.315624Q27.128124 27.425 27.628124 28.128124Q28.128124 28.83125 28.846874 28.83125Q29.58125 28.83125 30.065624 28.128124Q30.565624 27.425 30.565624 25.315624Q30.565624 23.190624 30.065624 22.503124Q29.58125 21.8 28.83125 21.8Q28.1125 21.8 27.675 22.409374Q27.128124 23.190624 27.128124 25.315624ZM33.05 25.315624Q33.05 23.784374 33.3625 22.8625Q33.675 21.925 34.284374 21.425Q34.909374 20.925 35.846874 20.925Q36.534374 20.925 37.05 21.20625Q37.58125 21.4875 37.925 22.01875Q38.26875 22.534374 38.45625 23.284374Q38.64375 24.034374 38.64375 25.315624Q38.64375 26.83125 38.33125 27.753124Q38.034374 28.675 37.409374 29.190624Q36.8 29.690624 35.846874 29.690624Q34.6125 29.690624 33.89375 28.8Q33.05 27.7375 33.05 25.315624ZM34.128124 25.315624Q34.128124 27.425 34.628124 28.128124Q35.128124 28.83125 35.846874 28.83125Q36.58125 28.83125 37.065624 28.128124Q37.565624 27.425 37.565624 25.315624Q37.565624 23.190624 37.065624 22.503124Q36.58125 21.8 35.83125 21.8Q35.1125 21.8 34.675 22.409374Q34.128124 23.190624 34.128124 25.315624ZM40.6125 29.55L40.6125 28.346874L41.815624 28.346874L41.815624 29.55Q41.815624 30.20625 41.58125 30.6125Q41.346874 31.034374 40.846874 31.253124L40.55 30.8Q40.878124 30.659374 41.034374 30.3625Q41.190624 30.08125 41.221874 29.55L40.6125 29.55ZM43.05 25.315624Q43.05 23.784374 43.3625 22.8625Q43.675 21.925 44.284374 21.425Q44.909374 20.925 45.846874 20.925Q46.534374 20.925 47.05 21.20625Q47.58125 21.4875 47.925 22.01875Q48.26875 22.534374 48.45625 23.284374Q48.64375 24.034374 48.64375 25.315624Q48.64375 26.83125 48.33125 27.753124Q48.034374 28.675 47.409374 29.190624Q46.8 29.690624 45.846874 29.690624Q44.6125 29.690624 43.89375 28.8Q43.05 27.7375 43.05 25.315624ZM44.128124 25.315624Q44.128124 27.425 44.628124 28.128124Q45.128124 28.83125 45.846874 28.83125Q46.58125 28.83125 47.065624 28.128124Q47.565624 27.425 47.565624 25.315624Q47.565624 23.190624 47.065624 22.503124Q46.58125 21.8 45.83125 21.8Q45.1125 21.8 44.675 22.409374Q44.128124 23.190624 44.128124 25.315624ZM50.05 25.315624Q50.05 23.784374 50.3625 22.8625Q50.675 21.925 51.284374 21.425Q51.909374 20.925 52.846874 20.925Q53.534374 20.925 54.05 21.20625Q54.58125 21.4875 54.925 22.01875Q55.26875 22.534374 55.45625 23.284374Q55.64375 24.034374 55.64375 25.315624Q55.64375 26.83125 55.33125 27.753124Q55.034374 28.675 54.409374 29.190624Q53.8 29.690624 52.846874 29.690624Q51.6125 29.690624 50.89375 28.8Q50.05 27.7375 50.05 25.315624ZM51.128124 25.315624Q51.128124 27.425 51.628124 28.128124Q52.128124 28.83125 52.846874 28.83125Q53.58125 28.83125 54.065624 28.128124Q54.565624 27.425 54.565624 25.315624Q54.565624 23.190624 54.065624 22.503124Q53.58125 21.8 52.83125 21.8Q52.1125 21.8 51.675 22.409374Q51.128124 23.190624 51.128124 25.315624ZM57.05 25.315624Q57.05 23.784374 57.3625 22.8625Q57.675 21.925 58.284374 21.425Q58.909374 20.925 59.846874 20.925Q60.534374 20.925 61.05 21.20625Q61.58125 21.4875 61.925 22.01875Q62.26875 22.534374 62.45625 23.284374Q62.64375 24.034374 62.64375 25.315624Q62.64375 26.83125 62.33125 27.753124Q62.034374 28.675 61.409374 29.190624Q60.8 29.690624 59.846874 29.690624Q58.6125 29.690624 57.89375 28.8Q57.05 27.7375 57.05 25.315624ZM58.128124 25.315624Q58.128124 27.425 58.628124 28.128124Q59.128124 28.83125 59.846874 28.83125Q60.58125 28.83125 61.065624 28.128124Q61.565624 27.425 61.565624 25.315624Q61.565624 23.190624 61.065624 22.503124Q60.58125 21.8 59.83125 21.8Q59.1125 21.8 58.675 22.409374Q58.128124 23.190624 58.128124 25.315624Z" fill-rule="nonzero"/><path fill="#000000" d="M122.36288 321.45L125.65975 312.85626L126.8785 312.85626L130.39413 321.45L129.11288 321.45L128.09726 318.84064L124.51913 318.84064L123.566 321.45L122.36288 321.45ZM124.84725 317.91876L127.7535 317.91876L126.86288 315.54376Q126.441 314.46564 126.2535 313.7625Q126.08163 314.59064 125.78475 315.40314L124.84725 317.91876ZM134.20663 321.45L134.20663 320.66876Q133.61288 321.59064 132.47226 321.59064Q131.72226 321.59064 131.09726 321.1844Q130.47226 320.7625 130.12851 320.02814Q129.78476 319.29376 129.78476 318.34064Q129.78476 317.41876 130.09726 316.65314Q130.40976 315.8875 131.03476 315.4969Q131.65976 315.09064 132.42538 315.09064Q132.98788 315.09064 133.42538 315.325Q133.86288 315.5594 134.14413 315.9344L134.14413 312.85626L135.19101 312.85626L135.19101 321.45L134.20663 321.45ZM130.87851 318.34064Q130.87851 319.54376 131.37851 320.1375Q131.87851 320.71564 132.56601 320.71564Q133.25351 320.71564 133.73788 320.15314Q134.22226 319.59064 134.22226 318.4344Q134.22226 317.15314 133.72226 316.5594Q133.23788 315.96564 132.51913 315.96564Q131.81601 315.96564 131.34726 316.54376Q130.87851 317.10626 130.87851 318.34064ZM141.25351 321.45L141.25351 320.52814Q140.51913 321.59064 139.26913 321.59064Q138.72226 321.59064 138.23788 321.3875Q137.76913 321.16876 137.53476 320.85626Q137.30038 320.52814 137.20663 320.0594Q137.14413 319.7625 137.14413 319.075L137.14413 315.23126L138.20663 315.23126L138.20663 318.6844Q138.20663 319.4969 138.26913 319.79376Q138.36288 320.2 138.67538 320.45Q139.00351 320.6844 139.48788 320.6844Q139.95663 320.6844 140.36288 320.45Q140.78476 320.2 140.95663 319.77814Q141.14413 319.35626 141.14413 318.5594L141.14413 315.23126L142.19101 315.23126L142.19101 321.45L141.25351 321.45ZM144.14413 321.45L144.14413 312.85626L145.20663 312.85626L145.20663 321.45L144.14413 321.45ZM149.47226 320.5125L149.62851 321.4344Q149.17538 321.52814 148.83163 321.52814Q148.25351 321.52814 147.94101 321.35626Q147.62851 321.16876 147.48788 320.8719Q147.36288 320.575 147.36288 319.6219L147.36288 316.04376L146.59726 316.04376L146.59726 315.23126L147.36288 315.23126L147.36288 313.6844L148.40976 313.0594L148.40976 315.23126L149.47226 315.23126L149.47226 316.04376L148.40976 316.04376L148.40976 319.6844Q148.40976 320.1375 148.45663 320.2625Q148.51913 320.3875 148.64413 320.46564Q148.76913 320.54376 149.00351 320.54376Q149.19101 320.54376 149.47226 320.5125ZM149.75351 319.59064L150.78476 319.4344Q150.87851 320.0594 151.26913 320.3875Q151.67538 320.71564 152.40976 320.71564Q153.12851 320.71564 153.47226 320.4344Q153.83163 320.1375 153.83163 319.73126Q153.83163 319.3719 153.51913 319.16876Q153.30038 319.02814 152.44101 318.8094Q151.28476 318.5125 150.83163 318.3094Q150.39413 318.09064 150.15976 317.71564Q149.92538 317.34064 149.92538 316.8719Q149.92538 316.46564 150.11288 316.10626Q150.30038 315.7469 150.62851 315.5125Q150.87851 315.34064 151.30038 315.21564Q151.72226 315.09064 152.22226 315.09064Q152.94101 315.09064 153.48788 315.3094Q154.05038 315.5125 154.31601 315.8719Q154.58163 316.23126 154.67538 316.825L153.64413 316.96564Q153.58163 316.4969 153.23788 316.23126Q152.90976 315.95 152.28476 315.95Q151.56601 315.95 151.25351 316.2Q150.94101 316.4344 150.94101 316.7625Q150.94101 316.96564 151.06601 317.1219Q151.20663 317.29376 151.47226 317.40314Q151.62851 317.46564 152.40976 317.66876Q153.53476 317.98126 153.97226 318.16876Q154.40976 318.35626 154.65976 318.71564Q154.90976 319.075 154.90976 319.6219Q154.90976 320.15314 154.59726 320.6219Q154.30038 321.075 153.72226 321.34064Q153.14413 321.59064 152.40976 321.59064Q151.19101 321.59064 150.55038 321.09064Q149.92538 320.575 149.75351 319.59064Z" fill-rule="nonzero"/><path fill="#000000" d="M99.816 335.45L99.816 326.85626L103.6285 326.85626Q104.78475 326.85626 105.3785 327.09064Q105.97225 327.325 106.33163 327.91876Q106.691 328.4969 106.691 329.2Q106.691 330.1219 106.09725 330.7469Q105.5035 331.3719 104.26913 331.54376Q104.72225 331.7625 104.95663 331.96564Q105.45663 332.41876 105.89413 333.10626L107.39413 335.45L105.95663 335.45L104.83163 333.66876Q104.33163 332.8875 104.0035 332.48126Q103.691 332.075 103.42538 331.91876Q103.17538 331.7469 102.90975 331.66876Q102.72225 331.6375 102.28475 331.6375L100.95663 331.6375L100.95663 335.45L99.816 335.45ZM100.95663 330.65314L103.40975 330.65314Q104.17538 330.65314 104.61288 330.4969Q105.066 330.325 105.28475 329.98126Q105.51913 329.6219 105.51913 329.2Q105.51913 328.59064 105.066 328.2Q104.6285 327.8094 103.67538 327.8094L100.95663 327.8094L100.95663 330.65314ZM112.92538 333.45L114.01913 333.575Q113.76913 334.52814 113.066 335.0594Q112.36288 335.59064 111.28475 335.59064Q109.92538 335.59064 109.11288 334.7469Q108.316 333.90314 108.316 332.3875Q108.316 330.825 109.1285 329.96564Q109.941 329.09064 111.22225 329.09064Q112.47225 329.09064 113.2535 329.9344Q114.05038 330.77814 114.05038 332.325Q114.05038 332.41876 114.05038 332.60626L109.40975 332.60626Q109.47225 333.6375 109.98788 334.1844Q110.5035 334.71564 111.28475 334.71564Q111.86288 334.71564 112.26913 334.41876Q112.691 334.10626 112.92538 333.45ZM109.47225 331.7469L112.941 331.7469Q112.8785 330.95 112.55038 330.5594Q112.03475 329.95 111.23788 329.95Q110.5035 329.95 110.0035 330.4344Q109.51913 330.91876 109.47225 331.7469ZM119.73788 333.16876L120.76913 333.3094Q120.59725 334.3719 119.89413 334.98126Q119.191 335.59064 118.17538 335.59064Q116.89413 335.59064 116.11288 334.7625Q115.34725 333.91876 115.34725 332.35626Q115.34725 331.35626 115.67538 330.60626Q116.01913 329.84064 116.691 329.46564Q117.3785 329.09064 118.191 329.09064Q119.191 329.09064 119.83163 329.60626Q120.48788 330.10626 120.67538 331.0594L119.64413 331.21564Q119.5035 330.59064 119.1285 330.27814Q118.7535 329.95 118.22225 329.95Q117.42538 329.95 116.92538 330.52814Q116.42538 331.09064 116.42538 332.325Q116.42538 333.59064 116.90975 334.15314Q117.39413 334.71564 118.15975 334.71564Q118.78475 334.71564 119.191 334.34064Q119.61288 333.96564 119.73788 333.16876ZM125.92538 333.45L127.01913 333.575Q126.76913 334.52814 126.066 335.0594Q125.36288 335.59064 124.28475 335.59064Q122.92538 335.59064 122.11288 334.7469Q121.316 333.90314 121.316 332.3875Q121.316 330.825 122.1285 329.96564Q122.941 329.09064 124.22225 329.09064Q125.47225 329.09064 126.2535 329.9344Q127.05038 330.77814 127.05038 332.325Q127.05038 332.41876 127.05038 332.60626L122.40975 332.60626Q122.47225 333.6375 122.98788 334.1844Q123.5035 334.71564 124.28475 334.71564Q124.86288 334.71564 125.26913 334.41876Q125.691 334.10626 125.92538 333.45ZM122.47225 331.7469L125.941 331.7469Q125.8785 330.95 125.55038 330.5594Q125.03475 329.95 124.23788 329.95Q123.5035 329.95 123.0035 330.4344Q122.51913 330.91876 122.47225 331.7469ZM128.67538 328.075L128.67538 326.85626L129.73788 326.85626L129.73788 328.075L128.67538 328.075ZM128.67538 335.45L128.67538 329.23126L129.73788 329.23126L129.73788 335.45L128.67538 335.45ZM133.39413 335.45L131.03476 329.23126L132.14413 329.23126L133.48788 332.95Q133.69101 333.5594 133.87851 334.2Q134.01913 333.71564 134.26913 333.02814L135.65976 329.23126L136.73788 329.23126L134.37851 335.45L133.39413 335.45ZM136.67538 328.075L136.67538 326.85626L137.73788 326.85626L137.73788 328.075L136.67538 328.075ZM136.67538 335.45L136.67538 329.23126L137.73788 329.23126L137.73788 335.45L136.67538 335.45ZM139.67538 335.45L139.67538 329.23126L140.61288 329.23126L140.61288 330.10626Q141.30038 329.09064 142.59726 329.09064Q143.15976 329.09064 143.62851 329.29376Q144.11288 329.4969 144.34726 329.825Q144.58163 330.15314 144.67538 330.59064Q144.72226 330.8875 144.72226 331.6219L144.72226 335.45L143.67538 335.45L143.67538 331.66876Q143.67538 331.0125 143.55038 330.7Q143.42538 330.3875 143.11288 330.2Q142.80038 329.9969 142.37851 329.9969Q141.70663 329.9969 141.20663 330.4344Q140.72226 330.85626 140.72226 332.04376L140.72226 335.45L139.67538 335.45ZM146.47226 335.96564L147.50351 336.1219Q147.56601 336.59064 147.86288 336.8094Q148.25351 337.10626 148.92538 337.10626Q149.65976 337.10626 150.05038 336.8094Q150.45663 336.5125 150.59726 335.9969Q150.69101 335.66876 150.67538 334.6375Q149.98788 335.45 148.95663 335.45Q147.67538 335.45 146.97226 334.52814Q146.26913 333.59064 146.26913 332.3094Q146.26913 331.41876 146.58163 330.66876Q146.90976 329.90314 147.51913 329.4969Q148.12851 329.09064 148.95663 329.09064Q150.06601 329.09064 150.78476 329.98126L150.78476 329.23126L151.75351 329.23126L151.75351 334.60626Q151.75351 336.0594 151.45663 336.66876Q151.15976 337.27814 150.51913 337.6219Q149.87851 337.98126 148.94101 337.98126Q147.83163 337.98126 147.14413 337.48126Q146.45663 336.98126 146.47226 335.96564ZM147.34726 332.23126Q147.34726 333.45 147.83163 334.0125Q148.31601 334.575 149.05038 334.575Q149.78476 334.575 150.26913 334.0125Q150.76913 333.45 150.76913 332.2625Q150.76913 331.1219 150.25351 330.54376Q149.75351 329.96564 149.03476 329.96564Q148.33163 329.96564 147.83163 330.54376Q147.34726 331.10626 147.34726 332.23126ZM157.00351 335.45L157.00351 326.85626L158.12851 326.85626L158.12851 335.45L157.00351 335.45ZM158.87851 335.59064L161.36288 326.71564L162.20663 326.71564L159.72226 335.59064L158.87851 335.59064ZM162.80038 335.45L162.80038 326.85626L165.76913 326.85626Q166.76913 326.85626 167.30038 326.98126Q168.03476 327.15314 168.55038 327.59064Q169.23788 328.16876 169.56601 329.075Q169.90976 329.96564 169.90976 331.10626Q169.90976 332.09064 169.67538 332.84064Q169.45663 333.59064 169.09726 334.09064Q168.73788 334.59064 168.30038 334.8719Q167.87851 335.15314 167.28476 335.3094Q166.69101 335.45 165.90976 335.45L162.80038 335.45ZM163.94101 334.4344L165.76913 334.4344Q166.62851 334.4344 167.11288 334.27814Q167.59726 334.1219 167.87851 333.825Q168.28476 333.4344 168.50351 332.7469Q168.73788 332.0594 168.73788 331.09064Q168.73788 329.7469 168.28476 329.02814Q167.84726 328.29376 167.22226 328.04376Q166.75351 327.8719 165.75351 327.8719L163.94101 327.8719L163.94101 334.4344ZM171.80038 335.45L171.80038 326.85626L174.76913 326.85626Q175.76913 326.85626 176.30038 326.98126Q177.03476 327.15314 177.55038 327.59064Q178.23788 328.16876 178.56601 329.075Q178.90976 329.96564 178.90976 331.10626Q178.90976 332.09064 178.67538 332.84064Q178.45663 333.59064 178.09726 334.09064Q177.73788 334.59064 177.30038 334.8719Q176.87851 335.15314 176.28476 335.3094Q175.69101 335.45 174.90976 335.45L171.80038 335.45ZM172.94101 334.4344L174.76913 334.4344Q175.62851 334.4344 176.11288 334.27814Q176.59726 334.1219 176.87851 333.825Q177.28476 333.4344 177.50351 332.7469Q177.73788 332.0594 177.73788 331.09064Q177.73788 329.7469 177.28476 329.02814Q176.84726 328.29376 176.22226 328.04376Q175.75351 327.8719 174.75351 327.8719L172.94101 327.8719L172.94101 334.4344Z" fill-rule="nonzero"/><path fill="#000000" d="M119.92538 346.6844L120.98788 346.59064Q121.066 347.2469 121.34725 347.65314Q121.6285 348.0594 122.20663 348.325Q122.80038 348.575 123.53475 348.575Q124.17538 348.575 124.67538 348.3875Q125.17538 348.1844 125.40975 347.85626Q125.65975 347.5125 125.65975 347.1219Q125.65975 346.71564 125.42538 346.41876Q125.191 346.10626 124.65975 345.90314Q124.30038 345.7625 123.11288 345.48126Q121.941 345.2 121.47225 344.95Q120.84725 344.6219 120.55038 344.15314Q120.2535 343.66876 120.2535 343.075Q120.2535 342.4344 120.61288 341.8719Q120.98788 341.29376 121.691 341.0125Q122.40975 340.71564 123.26913 340.71564Q124.22225 340.71564 124.95663 341.02814Q125.691 341.325 126.08163 341.9344Q126.47225 342.52814 126.5035 343.27814L125.40975 343.35626Q125.316 342.54376 124.80038 342.1375Q124.30038 341.71564 123.316 341.71564Q122.28475 341.71564 121.816 342.09064Q121.34725 342.46564 121.34725 342.9969Q121.34725 343.46564 121.67538 343.7625Q122.0035 344.0594 123.3785 344.3719Q124.76913 344.6844 125.28475 344.91876Q126.03475 345.27814 126.39413 345.8094Q126.7535 346.325 126.7535 347.02814Q126.7535 347.71564 126.36288 348.325Q125.97225 348.91876 125.23788 349.2625Q124.5035 349.59064 123.58163 349.59064Q122.40975 349.59064 121.61288 349.2625Q120.83163 348.91876 120.3785 348.23126Q119.941 347.54376 119.92538 346.6844ZM132.42538 347.45L133.51913 347.575Q133.26913 348.52814 132.56601 349.0594Q131.86288 349.59064 130.78476 349.59064Q129.42538 349.59064 128.61288 348.7469Q127.816 347.90314 127.816 346.3875Q127.816 344.825 128.62851 343.96564Q129.44101 343.09064 130.72226 343.09064Q131.97226 343.09064 132.75351 343.9344Q133.55038 344.77814 133.55038 346.325Q133.55038 346.41876 133.55038 346.60626L128.90976 346.60626Q128.97226 347.6375 129.48788 348.1844Q130.00351 348.71564 130.78476 348.71564Q131.36288 348.71564 131.76913 348.41876Q132.19101 348.10626 132.42538 347.45ZM128.97226 345.7469L132.44101 345.7469Q132.37851 344.95 132.05038 344.5594Q131.53476 343.95 130.73788 343.95Q130.00351 343.95 129.50351 344.4344Q129.01913 344.91876 128.97226 345.7469ZM135.15976 349.45L135.15976 343.23126L136.11288 343.23126L136.11288 344.16876Q136.47226 343.5125 136.76913 343.3094Q137.08163 343.09064 137.45663 343.09064Q137.98788 343.09064 138.53476 343.41876L138.17538 344.40314Q137.78476 344.16876 137.40976 344.16876Q137.05038 344.16876 136.76913 344.3875Q136.50351 344.59064 136.39413 344.96564Q136.20663 345.52814 136.20663 346.1844L136.20663 349.45L135.15976 349.45ZM140.89413 349.45L138.53476 343.23126L139.64413 343.23126L140.98788 346.95Q141.19101 347.5594 141.37851 348.2Q141.51913 347.71564 141.76913 347.02814L143.15976 343.23126L144.23788 343.23126L141.87851 349.45L140.89413 349.45ZM144.17538 342.075L144.17538 340.85626L145.23788 340.85626L145.23788 342.075L144.17538 342.075ZM144.17538 349.45L144.17538 343.23126L145.23788 343.23126L145.23788 349.45L144.17538 349.45ZM151.23788 347.16876L152.26913 347.3094Q152.09726 348.3719 151.39413 348.98126Q150.69101 349.59064 149.67538 349.59064Q148.39413 349.59064 147.61288 348.7625Q146.84726 347.91876 146.84726 346.35626Q146.84726 345.35626 147.17538 344.60626Q147.51913 343.84064 148.19101 343.46564Q148.87851 343.09064 149.69101 343.09064Q150.69101 343.09064 151.33163 343.60626Q151.98788 344.10626 152.17538 345.0594L151.14413 345.21564Q151.00351 344.59064 150.62851 344.27814Q150.25351 343.95 149.72226 343.95Q148.92538 343.95 148.42538 344.52814Q147.92538 345.09064 147.92538 346.325Q147.92538 347.59064 148.40976 348.15314Q148.89413 348.71564 149.65976 348.71564Q150.28476 348.71564 150.69101 348.34064Q151.11288 347.96564 151.23788 347.16876ZM157.42538 347.45L158.51913 347.575Q158.26913 348.52814 157.56601 349.0594Q156.86288 349.59064 155.78476 349.59064Q154.42538 349.59064 153.61288 348.7469Q152.81601 347.90314 152.81601 346.3875Q152.81601 344.825 153.62851 343.96564Q154.44101 343.09064 155.72226 343.09064Q156.97226 343.09064 157.75351 343.9344Q158.55038 344.77814 158.55038 346.325Q158.55038 346.41876 158.55038 346.60626L153.90976 346.60626Q153.97226 347.6375 154.48788 348.1844Q155.00351 348.71564 155.78476 348.71564Q156.36288 348.71564 156.76913 348.41876Q157.19101 348.10626 157.42538 347.45ZM153.97226 345.7469L157.44101 345.7469Q157.37851 344.95 157.05038 344.5594Q156.53476 343.95 155.73788 343.95Q155.00351 343.95 154.50351 344.4344Q154.01913 344.91876 153.97226 345.7469Z" fill-rule="nonzero"/><path fill="#000000" d="M195.92363 321.45L199.2205 312.85626L200.43925 312.85626L203.95488 321.45L202.67363 321.45L201.658 318.84064L198.07988 318.84064L197.12675 321.45L195.92363 321.45ZM198.408 317.91876L201.31425 317.91876L200.42363 315.54376Q200.00175 314.46564 199.81425 313.7625Q199.64238 314.59064 199.3455 315.40314L198.408 317.91876ZM207.81425 321.45L207.81425 320.52814Q207.07988 321.59064 205.82988 321.59064Q205.283 321.59064 204.79863 321.3875Q204.32988 321.16876 204.0955 320.85626Q203.86113 320.52814 203.76738 320.0594Q203.70488 319.7625 203.70488 319.075L203.70488 315.23126L204.76738 315.23126L204.76738 318.6844Q204.76738 319.4969 204.82988 319.79376Q204.92363 320.2 205.23613 320.45Q205.56425 320.6844 206.04863 320.6844Q206.51738 320.6844 206.92363 320.45Q207.3455 320.2 207.51738 319.77814Q207.70488 319.35626 207.70488 318.5594L207.70488 315.23126L208.75175 315.23126L208.75175 321.45L207.81425 321.45ZM213.033 320.5125L213.18925 321.4344Q212.73613 321.52814 212.39238 321.52814Q211.81425 321.52814 211.50175 321.35626Q211.18925 321.16876 211.04863 320.8719Q210.92363 320.575 210.92363 319.6219L210.92363 316.04376L210.158 316.04376L210.158 315.23126L210.92363 315.23126L210.92363 313.6844L211.9705 313.0594L211.9705 315.23126L213.033 315.23126L213.033 316.04376L211.9705 316.04376L211.9705 319.6844Q211.9705 320.1375 212.01738 320.2625Q212.07988 320.3875 212.20488 320.46564Q212.32988 320.54376 212.56425 320.54376Q212.75175 320.54376 213.033 320.5125ZM213.73613 314.075L213.73613 312.85626L214.79863 312.85626L214.79863 314.075L213.73613 314.075ZM213.73613 321.45L213.73613 315.23126L214.79863 315.23126L214.79863 321.45L213.73613 321.45ZM216.31425 319.59064L217.3455 319.4344Q217.43925 320.0594 217.82988 320.3875Q218.23613 320.71564 218.9705 320.71564Q219.68925 320.71564 220.033 320.4344Q220.39238 320.1375 220.39238 319.73126Q220.39238 319.3719 220.07988 319.16876Q219.86113 319.02814 219.00175 318.8094Q217.8455 318.5125 217.39238 318.3094Q216.95488 318.09064 216.7205 317.71564Q216.48613 317.34064 216.48613 316.8719Q216.48613 316.46564 216.67363 316.10626Q216.86113 315.7469 217.18925 315.5125Q217.43925 315.34064 217.86113 315.21564Q218.283 315.09064 218.783 315.09064Q219.50175 315.09064 220.04863 315.3094Q220.61113 315.5125 220.87675 315.8719Q221.14238 316.23126 221.23613 316.825L220.20488 316.96564Q220.14238 316.4969 219.79863 316.23126Q219.4705 315.95 218.8455 315.95Q218.12675 315.95 217.81425 316.2Q217.50175 316.4344 217.50175 316.7625Q217.50175 316.96564 217.62675 317.1219Q217.76738 317.29376 218.033 317.40314Q218.18925 317.46564 218.9705 317.66876Q220.0955 317.98126 220.533 318.16876Q220.9705 318.35626 221.2205 318.71564Q221.4705 319.075 221.4705 319.6219Q221.4705 320.15314 221.158 320.6219Q220.86113 321.075 220.283 321.34064Q219.70488 321.59064 218.9705 321.59064Q217.75175 321.59064 217.11113 321.09064Q216.48613 320.575 216.31425 319.59064ZM226.033 320.5125L226.18925 321.4344Q225.73613 321.52814 225.39238 321.52814Q224.81425 321.52814 224.50175 321.35626Q224.18925 321.16876 224.04863 320.8719Q223.92363 320.575 223.92363 319.6219L223.92363 316.04376L223.158 316.04376L223.158 315.23126L223.92363 315.23126L223.92363 313.6844L224.9705 313.0594L224.9705 315.23126L226.033 315.23126L226.033 316.04376L224.9705 316.04376L224.9705 319.6844Q224.9705 320.1375 225.01738 320.2625Q225.07988 320.3875 225.20488 320.46564Q225.32988 320.54376 225.56425 320.54376Q225.75175 320.54376 226.033 320.5125ZM226.73613 314.075L226.73613 312.85626L227.79863 312.85626L227.79863 314.075L226.73613 314.075ZM226.73613 321.45L226.73613 315.23126L227.79863 315.23126L227.79863 321.45L226.73613 321.45ZM233.79863 319.16876L234.82988 319.3094Q234.658 320.3719 233.95488 320.98126Q233.25175 321.59064 232.23613 321.59064Q230.95488 321.59064 230.17363 320.7625Q229.408 319.91876 229.408 318.35626Q229.408 317.35626 229.73613 316.60626Q230.07988 315.84064 230.75175 315.46564Q231.43925 315.09064 232.25175 315.09064Q233.25175 315.09064 233.89238 315.60626Q234.54863 316.10626 234.73613 317.0594L233.70488 317.21564Q233.56425 316.59064 233.18925 316.27814Q232.81425 315.95 232.283 315.95Q231.48613 315.95 230.98613 316.52814Q230.48613 317.09064 230.48613 318.325Q230.48613 319.59064 230.9705 320.15314Q231.45488 320.71564 232.2205 320.71564Q232.8455 320.71564 233.25175 320.34064Q233.67363 319.96564 233.79863 319.16876ZM237.92363 321.45L241.2205 312.85626L242.43925 312.85626L245.95488 321.45L244.67363 321.45L243.658 318.84064L240.07988 318.84064L239.12675 321.45L237.92363 321.45ZM240.408 317.91876L243.31425 317.91876L242.42363 315.54376Q242.00175 314.46564 241.81425 313.7625Q241.64238 314.59064 241.3455 315.40314L240.408 317.91876ZM249.76738 321.45L249.76738 320.66876Q249.17363 321.59064 248.033 321.59064Q247.283 321.59064 246.658 321.1844Q246.033 320.7625 245.68925 320.02814Q245.3455 319.29376 245.3455 318.34064Q245.3455 317.41876 245.658 316.65314Q245.9705 315.8875 246.5955 315.4969Q247.2205 315.09064 247.98613 315.09064Q248.54863 315.09064 248.98613 315.325Q249.42363 315.5594 249.70488 315.9344L249.70488 312.85626L250.75175 312.85626L250.75175 321.45L249.76738 321.45ZM246.43925 318.34064Q246.43925 319.54376 246.93925 320.1375Q247.43925 320.71564 248.12675 320.71564Q248.81425 320.71564 249.29863 320.15314Q249.783 319.59064 249.783 318.4344Q249.783 317.15314 249.283 316.5594Q248.79863 315.96564 248.07988 315.96564Q247.37675 315.96564 246.908 316.54376Q246.43925 317.10626 246.43925 318.34064ZM256.81427 321.45L256.81427 320.52814Q256.0799 321.59064 254.82988 321.59064Q254.283 321.59064 253.79863 321.3875Q253.32988 321.16876 253.0955 320.85626Q252.86113 320.52814 252.76738 320.0594Q252.70488 319.7625 252.70488 319.075L252.70488 315.23126L253.76738 315.23126L253.76738 318.6844Q253.76738 319.4969 253.82988 319.79376Q253.92363 320.2 254.23613 320.45Q254.56425 320.6844 255.04863 320.6844Q255.51738 320.6844 255.92363 320.45Q256.34552 320.2 256.5174 319.77814Q256.7049 319.35626 256.7049 318.5594L256.7049 315.23126L257.75177 315.23126L257.75177 321.45L256.81427 321.45ZM259.7049 321.45L259.7049 312.85626L260.7674 312.85626L260.7674 321.45L259.7049 321.45ZM265.03302 320.5125L265.18927 321.4344Q264.73615 321.52814 264.3924 321.52814Q263.81427 321.52814 263.50177 321.35626Q263.18927 321.16876 263.04865 320.8719Q262.92365 320.575 262.92365 319.6219L262.92365 316.04376L262.15802 316.04376L262.15802 315.23126L262.92365 315.23126L262.92365 313.6844L263.97052 313.0594L263.97052 315.23126L265.03302 315.23126L265.03302 316.04376L263.97052 316.04376L263.97052 319.6844Q263.97052 320.1375 264.0174 320.2625Q264.0799 320.3875 264.2049 320.46564Q264.3299 320.54376 264.56427 320.54376Q264.75177 320.54376 265.03302 320.5125ZM265.31427 319.59064L266.34552 319.4344Q266.43927 320.0594 266.8299 320.3875Q267.23615 320.71564 267.97052 320.71564Q268.68927 320.71564 269.03302 320.4344Q269.3924 320.1375 269.3924 319.73126Q269.3924 319.3719 269.0799 319.16876Q268.86115 319.02814 268.00177 318.8094Q266.84552 318.5125 266.3924 318.3094Q265.9549 318.09064 265.72052 317.71564Q265.48615 317.34064 265.48615 316.8719Q265.48615 316.46564 265.67365 316.10626Q265.86115 315.7469 266.18927 315.5125Q266.43927 315.34064 266.86115 315.21564Q267.28302 315.09064 267.78302 315.09064Q268.50177 315.09064 269.04865 315.3094Q269.61115 315.5125 269.87677 315.8719Q270.1424 316.23126 270.23615 316.825L269.2049 316.96564Q269.1424 316.4969 268.79865 316.23126Q268.47052 315.95 267.84552 315.95Q267.12677 315.95 266.81427 316.2Q266.50177 316.4344 266.50177 316.7625Q266.50177 316.96564 266.62677 317.1219Q266.7674 317.29376 267.03302 317.40314Q267.18927 317.46564 267.97052 317.66876Q269.09552 317.98126 269.53302 318.16876Q269.97052 318.35626 270.22052 318.71564Q270.47052 319.075 270.47052 319.6219Q270.47052 320.15314 270.15802 320.6219Q269.86115 321.075 269.28302 321.34064Q268.7049 321.59064 267.97052 321.59064Q266.75177 321.59064 266.11115 321.09064Q265.48615 320.575 265.31427 319.59064Z" fill-rule="nonzero"/><path fill="#000000" d="M194.37675 335.45L194.37675 326.85626L198.18925 326.85626Q199.3455 326.85626 199.93925 327.09064Q200.533 327.325 200.89238 327.91876Q201.25175 328.4969 201.25175 329.2Q201.25175 330.1219 200.658 330.7469Q200.06425 331.3719 198.82988 331.54376Q199.283 331.7625 199.51738 331.96564Q200.01738 332.41876 200.45488 333.10626L201.95488 335.45L200.51738 335.45L199.39238 333.66876Q198.89238 332.8875 198.56425 332.48126Q198.25175 332.075 197.98613 331.91876Q197.73613 331.7469 197.4705 331.66876Q197.283 331.6375 196.8455 331.6375L195.51738 331.6375L195.51738 335.45L194.37675 335.45ZM195.51738 330.65314L197.9705 330.65314Q198.73613 330.65314 199.17363 330.4969Q199.62675 330.325 199.8455 329.98126Q200.07988 329.6219 200.07988 329.2Q200.07988 328.59064 199.62675 328.2Q199.18925 327.8094 198.23613 327.8094L195.51738 327.8094L195.51738 330.65314ZM207.48613 333.45L208.57988 333.575Q208.32988 334.52814 207.62675 335.0594Q206.92363 335.59064 205.8455 335.59064Q204.48613 335.59064 203.67363 334.7469Q202.87675 333.90314 202.87675 332.3875Q202.87675 330.825 203.68925 329.96564Q204.50175 329.09064 205.783 329.09064Q207.033 329.09064 207.81425 329.9344Q208.61113 330.77814 208.61113 332.325Q208.61113 332.41876 208.61113 332.60626L203.9705 332.60626Q204.033 333.6375 204.54863 334.1844Q205.06425 334.71564 205.8455 334.71564Q206.42363 334.71564 206.82988 334.41876Q207.25175 334.10626 207.48613 333.45ZM204.033 331.7469L207.50175 331.7469Q207.43925 330.95 207.11113 330.5594Q206.5955 329.95 205.79863 329.95Q205.06425 329.95 204.56425 330.4344Q204.07988 330.91876 204.033 331.7469ZM214.29863 333.16876L215.32988 333.3094Q215.158 334.3719 214.45488 334.98126Q213.75175 335.59064 212.73613 335.59064Q211.45488 335.59064 210.67363 334.7625Q209.908 333.91876 209.908 332.35626Q209.908 331.35626 210.23613 330.60626Q210.57988 329.84064 211.25175 329.46564Q211.93925 329.09064 212.75175 329.09064Q213.75175 329.09064 214.39238 329.60626Q215.04863 330.10626 215.23613 331.0594L214.20488 331.21564Q214.06425 330.59064 213.68925 330.27814Q213.31425 329.95 212.783 329.95Q211.98613 329.95 211.48613 330.52814Q210.98613 331.09064 210.98613 332.325Q210.98613 333.59064 211.4705 334.15314Q211.95488 334.71564 212.7205 334.71564Q213.3455 334.71564 213.75175 334.34064Q214.17363 333.96564 214.29863 333.16876ZM220.48613 333.45L221.57988 333.575Q221.32988 334.52814 220.62675 335.0594Q219.92363 335.59064 218.8455 335.59064Q217.48613 335.59064 216.67363 334.7469Q215.87675 333.90314 215.87675 332.3875Q215.87675 330.825 216.68925 329.96564Q217.50175 329.09064 218.783 329.09064Q220.033 329.09064 220.81425 329.9344Q221.61113 330.77814 221.61113 332.325Q221.61113 332.41876 221.61113 332.60626L216.9705 332.60626Q217.033 333.6375 217.54863 334.1844Q218.06425 334.71564 218.8455 334.71564Q219.42363 334.71564 219.82988 334.41876Q220.25175 334.10626 220.48613 333.45ZM217.033 331.7469L220.50175 331.7469Q220.43925 330.95 220.11113 330.5594Q219.5955 329.95 218.79863 329.95Q218.06425 329.95 217.56425 330.4344Q217.07988 330.91876 217.033 331.7469ZM223.23613 328.075L223.23613 326.85626L224.29863 326.85626L224.29863 328.075L223.23613 328.075ZM223.23613 335.45L223.23613 329.23126L224.29863 329.23126L224.29863 335.45L223.23613 335.45ZM227.95488 335.45L225.5955 329.23126L226.70488 329.23126L228.04863 332.95Q228.25175 333.5594 228.43925 334.2Q228.57988 333.71564 228.82988 333.02814L230.2205 329.23126L231.29863 329.23126L228.93925 335.45L227.95488 335.45ZM231.23613 328.075L231.23613 326.85626L232.29863 326.85626L232.29863 328.075L231.23613 328.075ZM231.23613 335.45L231.23613 329.23126L232.29863 329.23126L232.29863 335.45L231.23613 335.45ZM234.23613 335.45L234.23613 329.23126L235.17363 329.23126L235.17363 330.10626Q235.86113 329.09064 237.158 329.09064Q237.7205 329.09064 238.18925 329.29376Q238.67363 329.4969 238.908 329.825Q239.14238 330.15314 239.23613 330.59064Q239.283 330.8875 239.283 331.6219L239.283 335.45L238.23613 335.45L238.23613 331.66876Q238.23613 331.0125 238.11113 330.7Q237.98613 330.3875 237.67363 330.2Q237.36113 329.9969 236.93925 329.9969Q236.26738 329.9969 235.76738 330.4344Q235.283 330.85626 235.283 332.04376L235.283 335.45L234.23613 335.45ZM241.033 335.96564L242.06425 336.1219Q242.12675 336.59064 242.42363 336.8094Q242.81425 337.10626 243.48613 337.10626Q244.2205 337.10626 244.61113 336.8094Q245.01738 336.5125 245.158 335.9969Q245.25175 335.66876 245.23613 334.6375Q244.54863 335.45 243.51738 335.45Q242.23613 335.45 241.533 334.52814Q240.82988 333.59064 240.82988 332.3094Q240.82988 331.41876 241.14238 330.66876Q241.4705 329.90314 242.07988 329.4969Q242.68925 329.09064 243.51738 329.09064Q244.62675 329.09064 245.3455 329.98126L245.3455 329.23126L246.31425 329.23126L246.31425 334.60626Q246.31425 336.0594 246.01738 336.66876Q245.7205 337.27814 245.07988 337.6219Q244.43925 337.98126 243.50175 337.98126Q242.39238 337.98126 241.70488 337.48126Q241.01738 336.98126 241.033 335.96564ZM241.908 332.23126Q241.908 333.45 242.39238 334.0125Q242.87675 334.575 243.61113 334.575Q244.3455 334.575 244.82988 334.0125Q245.32988 333.45 245.32988 332.2625Q245.32988 331.1219 244.81425 330.54376Q244.31425 329.96564 243.5955 329.96564Q242.89238 329.96564 242.39238 330.54376Q241.908 331.10626 241.908 332.23126ZM251.56425 335.45L251.56425 326.85626L252.68925 326.85626L252.68925 335.45L251.56425 335.45ZM253.43925 335.59064L255.92363 326.71564L256.7674 326.71564L254.283 335.59064L253.43925 335.59064ZM257.36115 335.45L257.36115 326.85626L260.3299 326.85626Q261.3299 326.85626 261.86115 326.98126Q262.59552 327.15314 263.11115 327.59064Q263.79865 328.16876 264.12677 329.075Q264.47052 329.96564 264.47052 331.10626Q264.47052 332.09064 264.23615 332.84064Q264.0174 333.59064 263.65802 334.09064Q263.29865 334.59064 262.86115 334.8719Q262.43927 335.15314 261.84552 335.3094Q261.25177 335.45 260.47052 335.45L257.36115 335.45ZM258.50177 334.4344L260.3299 334.4344Q261.18927 334.4344 261.67365 334.27814Q262.15802 334.1219 262.43927 333.825Q262.84552 333.4344 263.06427 332.7469Q263.29865 332.0594 263.29865 331.09064Q263.29865 329.7469 262.84552 329.02814Q262.40802 328.29376 261.78302 328.04376Q261.31427 327.8719 260.31427 327.8719L258.50177 327.8719L258.50177 334.4344ZM266.36115 335.45L266.36115 326.85626L269.3299 326.85626Q270.3299 326.85626 270.86115 326.98126Q271.59552 327.15314 272.11115 327.59064Q272.79865 328.16876 273.12677 329.075Q273.47052 329.96564 273.47052 331.10626Q273.47052 332.09064 273.23615 332.84064Q273.0174 333.59064 272.65802 334.09064Q272.29865 334.59064 271.86115 334.8719Q271.43927 335.15314 270.84552 335.3094Q270.25177 335.45 269.47052 335.45L266.36115 335.45ZM267.50177 334.4344L269.3299 334.4344Q270.18927 334.4344 270.67365 334.27814Q271.15802 334.1219 271.43927 333.825Q271.84552 333.4344 272.06427 332.7469Q272.29865 332.0594 272.29865 331.09064Q272.29865 329.7469 271.84552 329.02814Q271.40802 328.29376 270.78302 328.04376Q270.31427 327.8719 269.31427 327.8719L267.50177 327.8719L267.50177 334.4344Z" fill-rule="nonzero"/><path fill="#000000" d="M214.48613 346.6844L215.54863 346.59064Q215.62675 347.2469 215.908 347.65314Q216.18925 348.0594 216.76738 348.325Q217.36113 348.575 218.0955 348.575Q218.73613 348.575 219.23613 348.3875Q219.73613 348.1844 219.9705 347.85626Q220.2205 347.5125 220.2205 347.1219Q220.2205 346.71564 219.98613 346.41876Q219.75175 346.10626 219.2205 345.90314Q218.86113 345.7625 217.67363 345.48126Q216.50175 345.2 216.033 344.95Q215.408 344.6219 215.11113 344.15314Q214.81425 343.66876 214.81425 343.075Q214.81425 342.4344 215.17363 341.8719Q215.54863 341.29376 216.25175 341.0125Q216.9705 340.71564 217.82988 340.71564Q218.783 340.71564 219.51738 341.02814Q220.25175 341.325 220.64238 341.9344Q221.033 342.52814 221.06425 343.27814L219.9705 343.35626Q219.87675 342.54376 219.36113 342.1375Q218.86113 341.71564 217.87675 341.71564Q216.8455 341.71564 216.37675 342.09064Q215.908 342.46564 215.908 342.9969Q215.908 343.46564 216.23613 343.7625Q216.56425 344.0594 217.93925 344.3719Q219.32988 344.6844 219.8455 344.91876Q220.5955 345.27814 220.95488 345.8094Q221.31425 346.325 221.31425 347.02814Q221.31425 347.71564 220.92363 348.325Q220.533 348.91876 219.79863 349.2625Q219.06425 349.59064 218.14238 349.59064Q216.9705 349.59064 216.17363 349.2625Q215.39238 348.91876 214.93925 348.23126Q214.50175 347.54376 214.48613 346.6844ZM226.98613 347.45L228.07988 347.575Q227.82988 348.52814 227.12675 349.0594Q226.42363 349.59064 225.3455 349.59064Q223.98613 349.59064 223.17363 348.7469Q222.37675 347.90314 222.37675 346.3875Q222.37675 344.825 223.18925 343.96564Q224.00175 343.09064 225.283 343.09064Q226.533 343.09064 227.31425 343.9344Q228.11113 344.77814 228.11113 346.325Q228.11113 346.41876 228.11113 346.60626L223.4705 346.60626Q223.533 347.6375 224.04863 348.1844Q224.56425 348.71564 225.3455 348.71564Q225.92363 348.71564 226.32988 348.41876Q226.75175 348.10626 226.98613 347.45ZM223.533 345.7469L227.00175 345.7469Q226.93925 344.95 226.61113 344.5594Q226.0955 343.95 225.29863 343.95Q224.56425 343.95 224.06425 344.4344Q223.57988 344.91876 223.533 345.7469ZM229.7205 349.45L229.7205 343.23126L230.67363 343.23126L230.67363 344.16876Q231.033 343.5125 231.32988 343.3094Q231.64238 343.09064 232.01738 343.09064Q232.54863 343.09064 233.0955 343.41876L232.73613 344.40314Q232.3455 344.16876 231.9705 344.16876Q231.61113 344.16876 231.32988 344.3875Q231.06425 344.59064 230.95488 344.96564Q230.76738 345.52814 230.76738 346.1844L230.76738 349.45L229.7205 349.45ZM235.45488 349.45L233.0955 343.23126L234.20488 343.23126L235.54863 346.95Q235.75175 347.5594 235.93925 348.2Q236.07988 347.71564 236.32988 347.02814L237.7205 343.23126L238.79863 343.23126L236.43925 349.45L235.45488 349.45ZM238.73613 342.075L238.73613 340.85626L239.79863 340.85626L239.79863 342.075L238.73613 342.075ZM238.73613 349.45L238.73613 343.23126L239.79863 343.23126L239.79863 349.45L238.73613 349.45ZM245.79863 347.16876L246.82988 347.3094Q246.658 348.3719 245.95488 348.98126Q245.25175 349.59064 244.23613 349.59064Q242.95488 349.59064 242.17363 348.7625Q241.408 347.91876 241.408 346.35626Q241.408 345.35626 241.73613 344.60626Q242.07988 343.84064 242.75175 343.46564Q243.43925 343.09064 244.25175 343.09064Q245.25175 343.09064 245.89238 343.60626Q246.54863 344.10626 246.73613 345.0594L245.70488 345.21564Q245.56425 344.59064 245.18925 344.27814Q244.81425 343.95 244.283 343.95Q243.48613 343.95 242.98613 344.52814Q242.48613 345.09064 242.48613 346.325Q242.48613 347.59064 242.9705 348.15314Q243.45488 348.71564 244.2205 348.71564Q244.8455 348.71564 245.25175 348.34064Q245.67363 347.96564 245.79863 347.16876ZM251.98613 347.45L253.07988 347.575Q252.82988 348.52814 252.12675 349.0594Q251.42363 349.59064 250.3455 349.59064Q248.98613 349.59064 248.17363 348.7469Q247.37675 347.90314 247.37675 346.3875Q247.37675 344.825 248.18925 343.96564Q249.00175 343.09064 250.283 343.09064Q251.533 343.09064 252.31425 343.9344Q253.11113 344.77814 253.11113 346.325Q253.11113 346.41876 253.11113 346.60626L248.4705 346.60626Q248.533 347.6375 249.04863 348.1844Q249.56425 348.71564 250.3455 348.71564Q250.92363 348.71564 251.32988 348.41876Q251.75175 348.10626 251.98613 347.45ZM248.533 345.7469L252.00175 345.7469Q251.93925 344.95 251.61113 344.5594Q251.0955 343.95 250.29863 343.95Q249.56425 343.95 249.06425 344.4344Q248.57988 344.91876 248.533 345.7469Z" fill-rule="nonzero"/><path fill="#000000" d="M290.48438 321.45L293.78125 312.85626L295.0 312.85626L298.51562 321.45L297.23438 321.45L296.21875 318.84064L292.64062 318.84064L291.6875 321.45L290.48438 321.45ZM292.96875 317.91876L295.875 317.91876L294.98438 315.54376Q294.5625 314.46564 294.375 313.7625Q294.20312 314.59064 293.90625 315.40314L292.96875 317.91876ZM302.375 321.45L302.375 320.52814Q301.64062 321.59064 300.39062 321.59064Q299.84375 321.59064 299.35938 321.3875Q298.89062 321.16876 298.65625 320.85626Q298.42188 320.52814 298.32812 320.0594Q298.26562 319.7625 298.26562 319.075L298.26562 315.23126L299.32812 315.23126L299.32812 318.6844Q299.32812 319.4969 299.39062 319.79376Q299.48438 320.2 299.79688 320.45Q300.125 320.6844 300.60938 320.6844Q301.07812 320.6844 301.48438 320.45Q301.90625 320.2 302.07812 319.77814Q302.26562 319.35626 302.26562 318.5594L302.26562 315.23126L303.3125 315.23126L303.3125 321.45L302.375 321.45ZM307.59375 320.5125L307.75 321.4344Q307.29688 321.52814 306.95312 321.52814Q306.375 321.52814 306.0625 321.35626Q305.75 321.16876 305.60938 320.8719Q305.48438 320.575 305.48438 319.6219L305.48438 316.04376L304.71875 316.04376L304.71875 315.23126L305.48438 315.23126L305.48438 313.6844L306.53125 313.0594L306.53125 315.23126L307.59375 315.23126L307.59375 316.04376L306.53125 316.04376L306.53125 319.6844Q306.53125 320.1375 306.57812 320.2625Q306.64062 320.3875 306.76562 320.46564Q306.89062 320.54376 307.125 320.54376Q307.3125 320.54376 307.59375 320.5125ZM308.29688 314.075L308.29688 312.85626L309.35938 312.85626L309.35938 314.075L308.29688 314.075ZM308.29688 321.45L308.29688 315.23126L309.35938 315.23126L309.35938 321.45L308.29688 321.45ZM310.875 319.59064L311.90625 319.4344Q312.0 320.0594 312.39062 320.3875Q312.79688 320.71564 313.53125 320.71564Q314.25 320.71564 314.59375 320.4344Q314.95312 320.1375 314.95312 319.73126Q314.95312 319.3719 314.64062 319.16876Q314.42188 319.02814 313.5625 318.8094Q312.40625 318.5125 311.95312 318.3094Q311.51562 318.09064 311.28125 317.71564Q311.04688 317.34064 311.04688 316.8719Q311.04688 316.46564 311.23438 316.10626Q311.42188 315.7469 311.75 315.5125Q312.0 315.34064 312.42188 315.21564Q312.84375 315.09064 313.34375 315.09064Q314.0625 315.09064 314.60938 315.3094Q315.17188 315.5125 315.4375 315.8719Q315.70312 316.23126 315.79688 316.825L314.76562 316.96564Q314.70312 316.4969 314.35938 316.23126Q314.03125 315.95 313.40625 315.95Q312.6875 315.95 312.375 316.2Q312.0625 316.4344 312.0625 316.7625Q312.0625 316.96564 312.1875 317.1219Q312.32812 317.29376 312.59375 317.40314Q312.75 317.46564 313.53125 317.66876Q314.65625 317.98126 315.09375 318.16876Q315.53125 318.35626 315.78125 318.71564Q316.03125 319.075 316.03125 319.6219Q316.03125 320.15314 315.71875 320.6219Q315.42188 321.075 314.84375 321.34064Q314.26562 321.59064 313.53125 321.59064Q312.3125 321.59064 311.67188 321.09064Q311.04688 320.575 310.875 319.59064ZM320.59375 320.5125L320.75 321.4344Q320.29688 321.52814 319.95312 321.52814Q319.375 321.52814 319.0625 321.35626Q318.75 321.16876 318.60938 320.8719Q318.48438 320.575 318.48438 319.6219L318.48438 316.04376L317.71875 316.04376L317.71875 315.23126L318.48438 315.23126L318.48438 313.6844L319.53125 313.0594L319.53125 315.23126L320.59375 315.23126L320.59375 316.04376L319.53125 316.04376L319.53125 319.6844Q319.53125 320.1375 319.57812 320.2625Q319.64062 320.3875 319.76562 320.46564Q319.89062 320.54376 320.125 320.54376Q320.3125 320.54376 320.59375 320.5125ZM321.29688 314.075L321.29688 312.85626L322.35938 312.85626L322.35938 314.075L321.29688 314.075ZM321.29688 321.45L321.29688 315.23126L322.35938 315.23126L322.35938 321.45L321.29688 321.45ZM328.35938 319.16876L329.39062 319.3094Q329.21875 320.3719 328.51562 320.98126Q327.8125 321.59064 326.79688 321.59064Q325.51562 321.59064 324.73438 320.7625Q323.96875 319.91876 323.96875 318.35626Q323.96875 317.35626 324.29688 316.60626Q324.64062 315.84064 325.3125 315.46564Q326.0 315.09064 326.8125 315.09064Q327.8125 315.09064 328.45312 315.60626Q329.10938 316.10626 329.29688 317.0594L328.26562 317.21564Q328.125 316.59064 327.75 316.27814Q327.375 315.95 326.84375 315.95Q326.04688 315.95 325.54688 316.52814Q325.04688 317.09064 325.04688 318.325Q325.04688 319.59064 325.53125 320.15314Q326.01562 320.71564 326.78125 320.71564Q327.40625 320.71564 327.8125 320.34064Q328.23438 319.96564 328.35938 319.16876ZM332.48438 321.45L335.78125 312.85626L337.0 312.85626L340.51562 321.45L339.23438 321.45L338.21875 318.84064L334.64062 318.84064L333.6875 321.45L332.48438 321.45ZM334.96875 317.91876L337.875 317.91876L336.98438 315.54376Q336.5625 314.46564 336.375 313.7625Q336.20312 314.59064 335.90625 315.40314L334.96875 317.91876ZM344.32812 321.45L344.32812 320.66876Q343.73438 321.59064 342.59375 321.59064Q341.84375 321.59064 341.21875 321.1844Q340.59375 320.7625 340.25 320.02814Q339.90625 319.29376 339.90625 318.34064Q339.90625 317.41876 340.21875 316.65314Q340.53125 315.8875 341.15625 315.4969Q341.78125 315.09064 342.54688 315.09064Q343.10938 315.09064 343.54688 315.325Q343.98438 315.5594 344.26562 315.9344L344.26562 312.85626L345.3125 312.85626L345.3125 321.45L344.32812 321.45ZM341.0 318.34064Q341.0 319.54376 341.5 320.1375Q342.0 320.71564 342.6875 320.71564Q343.375 320.71564 343.85938 320.15314Q344.34375 319.59064 344.34375 318.4344Q344.34375 317.15314 343.84375 316.5594Q343.35938 315.96564 342.64062 315.96564Q341.9375 315.96564 341.46875 316.54376Q341.0 317.10626 341.0 318.34064ZM351.375 321.45L351.375 320.52814Q350.64062 321.59064 349.39062 321.59064Q348.84375 321.59064 348.35938 321.3875Q347.89062 321.16876 347.65625 320.85626Q347.42188 320.52814 347.32812 320.0594Q347.26562 319.7625 347.26562 319.075L347.26562 315.23126L348.32812 315.23126L348.32812 318.6844Q348.32812 319.4969 348.39062 319.79376Q348.48438 320.2 348.79688 320.45Q349.125 320.6844 349.60938 320.6844Q350.07812 320.6844 350.48438 320.45Q350.90625 320.2 351.07812 319.77814Q351.26562 319.35626 351.26562 318.5594L351.26562 315.23126L352.3125 315.23126L352.3125 321.45L351.375 321.45ZM354.26562 321.45L354.26562 312.85626L355.32812 312.85626L355.32812 321.45L354.26562 321.45ZM359.59375 320.5125L359.75 321.4344Q359.29688 321.52814 358.95312 321.52814Q358.375 321.52814 358.0625 321.35626Q357.75 321.16876 357.60938 320.8719Q357.48438 320.575 357.48438 319.6219L357.48438 316.04376L356.71875 316.04376L356.71875 315.23126L357.48438 315.23126L357.48438 313.6844L358.53125 313.0594L358.53125 315.23126L359.59375 315.23126L359.59375 316.04376L358.53125 316.04376L358.53125 319.6844Q358.53125 320.1375 358.57812 320.2625Q358.64062 320.3875 358.76562 320.46564Q358.89062 320.54376 359.125 320.54376Q359.3125 320.54376 359.59375 320.5125ZM359.875 319.59064L360.90625 319.4344Q361.0 320.0594 361.39062 320.3875Q361.79688 320.71564 362.53125 320.71564Q363.25 320.71564 363.59375 320.4344Q363.95312 320.1375 363.95312 319.73126Q363.95312 319.3719 363.64062 319.16876Q363.42188 319.02814 362.5625 318.8094Q361.40625 318.5125 360.95312 318.3094Q360.51562 318.09064 360.28125 317.71564Q360.04688 317.34064 360.04688 316.8719Q360.04688 316.46564 360.23438 316.10626Q360.42188 315.7469 360.75 315.5125Q361.0 315.34064 361.42188 315.21564Q361.84375 315.09064 362.34375 315.09064Q363.0625 315.09064 363.60938 315.3094Q364.17188 315.5125 364.4375 315.8719Q364.70312 316.23126 364.79688 316.825L363.76562 316.96564Q363.70312 316.4969 363.35938 316.23126Q363.03125 315.95 362.40625 315.95Q361.6875 315.95 361.375 316.2Q361.0625 316.4344 361.0625 316.7625Q361.0625 316.96564 361.1875 317.1219Q361.32812 317.29376 361.59375 317.40314Q361.75 317.46564 362.53125 317.66876Q363.65625 317.98126 364.09375 318.16876Q364.53125 318.35626 364.78125 318.71564Q365.03125 319.075 365.03125 319.6219Q365.03125 320.15314 364.71875 320.6219Q364.42188 321.075 363.84375 321.34064Q363.26562 321.59064 362.53125 321.59064Q361.3125 321.59064 360.67188 321.09064Q360.04688 320.575 359.875 319.59064Z" fill-rule="nonzero"/><path fill="#000000" d="M392.4514 321.45L392.4514 312.85626L394.17014 312.85626L396.2014 318.9344Q396.48264 319.79376 396.60764 320.21564Q396.74826 319.7469 397.06076 318.84064L399.12326 312.85626L400.6545 312.85626L400.6545 321.45L399.56076 321.45L399.56076 314.2625L397.06076 321.45L396.0295 321.45L393.54514 314.1375L393.54514 321.45L392.4514 321.45ZM405.42014 320.6844Q404.8264 321.1844 404.2795 321.3875Q403.74826 321.59064 403.12326 321.59064Q402.092 321.59064 401.54514 321.09064Q400.99826 320.59064 400.99826 319.8094Q400.99826 319.35626 401.2014 318.98126Q401.4045 318.59064 401.74826 318.3719Q402.092 318.1375 402.5139 318.02814Q402.81076 317.9344 403.4514 317.85626Q404.717 317.71564 405.3264 317.4969Q405.3264 317.27814 405.3264 317.23126Q405.3264 316.575 405.0295 316.3094Q404.62326 315.96564 403.8264 315.96564Q403.092 315.96564 402.73264 316.23126Q402.37326 316.48126 402.2014 317.1375L401.17014 316.9969Q401.31076 316.34064 401.6389 315.9344Q401.967 315.52814 402.5764 315.3094Q403.18576 315.09064 403.98264 315.09064Q404.7795 315.09064 405.2795 315.27814Q405.7795 315.46564 406.0139 315.7469Q406.24826 316.02814 406.342 316.46564Q406.3889 316.73126 406.3889 317.4344L406.3889 318.84064Q406.3889 320.3094 406.4514 320.7Q406.5295 321.09064 406.73264 321.45L405.62326 321.45Q405.467 321.1219 405.42014 320.6844ZM405.3264 318.325Q404.74826 318.5594 403.60764 318.73126Q402.9514 318.825 402.68576 318.95Q402.42014 319.0594 402.2639 319.27814Q402.12326 319.4969 402.12326 319.77814Q402.12326 320.2 402.43576 320.48126Q402.7639 320.7625 403.37326 320.7625Q403.98264 320.7625 404.4514 320.4969Q404.93576 320.23126 405.1545 319.7625Q405.3264 319.40314 405.3264 318.71564L405.3264 318.325ZM407.6545 321.45L409.92014 318.21564L407.8264 315.23126L409.1389 315.23126L410.092 316.6844Q410.35764 317.10626 410.5295 317.3875Q410.7795 316.9969 410.99826 316.7L412.04514 315.23126L413.31076 315.23126L411.1545 318.15314L413.467 321.45L412.18576 321.45L410.9045 319.5125L410.56076 318.9969L408.92014 321.45L407.6545 321.45ZM415.54514 321.45L418.842 312.85626L420.06076 312.85626L423.5764 321.45L422.29514 321.45L421.2795 318.84064L417.7014 318.84064L416.74826 321.45L415.54514 321.45ZM418.0295 317.91876L420.93576 317.91876L420.04514 315.54376Q419.62326 314.46564 419.43576 313.7625Q419.2639 314.59064 418.967 315.40314L418.0295 317.91876ZM427.43576 321.45L427.43576 320.52814Q426.7014 321.59064 425.4514 321.59064Q424.9045 321.59064 424.42014 321.3875Q423.9514 321.16876 423.717 320.85626Q423.48264 320.52814 423.3889 320.0594Q423.3264 319.7625 423.3264 319.075L423.3264 315.23126L424.3889 315.23126L424.3889 318.6844Q424.3889 319.4969 424.4514 319.79376Q424.54514 320.2 424.85764 320.45Q425.18576 320.6844 425.67014 320.6844Q426.1389 320.6844 426.54514 320.45Q426.967 320.2 427.1389 319.77814Q427.3264 319.35626 427.3264 318.5594L427.3264 315.23126L428.37326 315.23126L428.37326 321.45L427.43576 321.45ZM432.6545 320.5125L432.81076 321.4344Q432.35764 321.52814 432.0139 321.52814Q431.43576 321.52814 431.12326 321.35626Q430.81076 321.16876 430.67014 320.8719Q430.54514 320.575 430.54514 319.6219L430.54514 316.04376L429.7795 316.04376L429.7795 315.23126L430.54514 315.23126L430.54514 313.6844L431.592 313.0594L431.592 315.23126L432.6545 315.23126L432.6545 316.04376L431.592 316.04376L431.592 319.6844Q431.592 320.1375 431.6389 320.2625Q431.7014 320.3875 431.8264 320.46564Q431.9514 320.54376 432.18576 320.54376Q432.37326 320.54376 432.6545 320.5125ZM433.35764 314.075L433.35764 312.85626L434.42014 312.85626L434.42014 314.075L433.35764 314.075ZM433.35764 321.45L433.35764 315.23126L434.42014 315.23126L434.42014 321.45L433.35764 321.45ZM435.93576 319.59064L436.967 319.4344Q437.06076 320.0594 437.4514 320.3875Q437.85764 320.71564 438.592 320.71564Q439.31076 320.71564 439.6545 320.4344Q440.0139 320.1375 440.0139 319.73126Q440.0139 319.3719 439.7014 319.16876Q439.48264 319.02814 438.62326 318.8094Q437.467 318.5125 437.0139 318.3094Q436.5764 318.09064 436.342 317.71564Q436.10764 317.34064 436.10764 316.8719Q436.10764 316.46564 436.29514 316.10626Q436.48264 315.7469 436.81076 315.5125Q437.06076 315.34064 437.48264 315.21564Q437.9045 315.09064 438.4045 315.09064Q439.12326 315.09064 439.67014 315.3094Q440.23264 315.5125 440.49826 315.8719Q440.7639 316.23126 440.85764 316.825L439.8264 316.96564Q439.7639 316.4969 439.42014 316.23126Q439.092 315.95 438.467 315.95Q437.74826 315.95 437.43576 316.2Q437.12326 316.4344 437.12326 316.7625Q437.12326 316.96564 437.24826 317.1219Q437.3889 317.29376 437.6545 317.40314Q437.81076 317.46564 438.592 317.66876Q439.717 317.98126 440.1545 318.16876Q440.592 318.35626 440.842 318.71564Q441.092 319.075 441.092 319.6219Q441.092 320.15314 440.7795 320.6219Q440.48264 321.075 439.9045 321.34064Q439.3264 321.59064 438.592 321.59064Q437.37326 321.59064 436.73264 321.09064Q436.10764 320.575 435.93576 319.59064ZM445.6545 320.5125L445.81076 321.4344Q445.35764 321.52814 445.0139 321.52814Q444.43576 321.52814 444.12326 321.35626Q443.81076 321.16876 443.67014 320.8719Q443.54514 320.575 443.54514 319.6219L443.54514 316.04376L442.7795 316.04376L442.7795 315.23126L443.54514 315.23126L443.54514 313.6844L444.592 313.0594L444.592 315.23126L445.6545 315.23126L445.6545 316.04376L444.592 316.04376L444.592 319.6844Q444.592 320.1375 444.6389 320.2625Q444.7014 320.3875 444.8264 320.46564Q444.9514 320.54376 445.18576 320.54376Q445.37326 320.54376 445.6545 320.5125ZM446.35764 314.075L446.35764 312.85626L447.42014 312.85626L447.42014 314.075L446.35764 314.075ZM446.35764 321.45L446.35764 315.23126L447.42014 315.23126L447.42014 321.45L446.35764 321.45ZM453.42014 319.16876L454.4514 319.3094Q454.2795 320.3719 453.5764 320.98126Q452.87326 321.59064 451.85764 321.59064Q450.5764 321.59064 449.79514 320.7625Q449.0295 319.91876 449.0295 318.35626Q449.0295 317.35626 449.35764 316.60626Q449.7014 315.84064 450.37326 315.46564Q451.06076 315.09064 451.87326 315.09064Q452.87326 315.09064 453.5139 315.60626Q454.17014 316.10626 454.35764 317.0594L453.3264 317.21564Q453.18576 316.59064 452.81076 316.27814Q452.43576 315.95 451.9045 315.95Q451.10764 315.95 450.60764 316.52814Q450.10764 317.09064 450.10764 318.325Q450.10764 319.59064 450.592 320.15314Q451.0764 320.71564 451.842 320.71564Q452.467 320.71564 452.87326 320.34064Q453.29514 319.96564 453.42014 319.16876Z" fill-rule="nonzero"/><path fill="#000000" d="M406.04514 335.45L409.342 326.85626L410.56076 326.85626L414.0764 335.45L412.79514 335.45L411.7795 332.84064L408.2014 332.84064L407.24826 335.45L406.04514 335.45ZM408.5295 331.91876L411.43576 331.91876L410.54514 329.54376Q410.12326 328.46564 409.93576 327.7625Q409.7639 328.59064 409.467 329.40314L408.5295 331.91876ZM417.8889 335.45L417.8889 334.66876Q417.29514 335.59064 416.1545 335.59064Q415.4045 335.59064 414.7795 335.1844Q414.1545 334.7625 413.81076 334.02814Q413.467 333.29376 413.467 332.34064Q413.467 331.41876 413.7795 330.65314Q414.092 329.8875 414.717 329.4969Q415.342 329.09064 416.10764 329.09064Q416.67014 329.09064 417.10764 329.325Q417.54514 329.5594 417.8264 329.9344L417.8264 326.85626L418.87326 326.85626L418.87326 335.45L417.8889 335.45ZM414.56076 332.34064Q414.56076 333.54376 415.06076 334.1375Q415.56076 334.71564 416.24826 334.71564Q416.93576 334.71564 417.42014 334.15314Q417.9045 333.59064 417.9045 332.4344Q417.9045 331.15314 417.4045 330.5594Q416.92014 329.96564 416.2014 329.96564Q415.49826 329.96564 415.0295 330.54376Q414.56076 331.10626 414.56076 332.34064ZM424.93576 335.45L424.93576 334.52814Q424.2014 335.59064 422.9514 335.59064Q422.4045 335.59064 421.92014 335.3875Q421.4514 335.16876 421.217 334.85626Q420.98264 334.52814 420.8889 334.0594Q420.8264 333.7625 420.8264 333.075L420.8264 329.23126L421.8889 329.23126L421.8889 332.6844Q421.8889 333.4969 421.9514 333.79376Q422.04514 334.2 422.35764 334.45Q422.68576 334.6844 423.17014 334.6844Q423.6389 334.6844 424.04514 334.45Q424.467 334.2 424.6389 333.77814Q424.8264 333.35626 424.8264 332.5594L424.8264 329.23126L425.87326 329.23126L425.87326 335.45L424.93576 335.45ZM427.8264 335.45L427.8264 326.85626L428.8889 326.85626L428.8889 335.45L427.8264 335.45ZM433.1545 334.5125L433.31076 335.4344Q432.85764 335.52814 432.5139 335.52814Q431.93576 335.52814 431.62326 335.35626Q431.31076 335.16876 431.17014 334.8719Q431.04514 334.575 431.04514 333.6219L431.04514 330.04376L430.2795 330.04376L430.2795 329.23126L431.04514 329.23126L431.04514 327.6844L432.092 327.0594L432.092 329.23126L433.1545 329.23126L433.1545 330.04376L432.092 330.04376L432.092 333.6844Q432.092 334.1375 432.1389 334.2625Q432.2014 334.3875 432.3264 334.46564Q432.4514 334.54376 432.68576 334.54376Q432.87326 334.54376 433.1545 334.5125ZM433.43576 333.59064L434.467 333.4344Q434.56076 334.0594 434.9514 334.3875Q435.35764 334.71564 436.092 334.71564Q436.81076 334.71564 437.1545 334.4344Q437.5139 334.1375 437.5139 333.73126Q437.5139 333.3719 437.2014 333.16876Q436.98264 333.02814 436.12326 332.8094Q434.967 332.5125 434.5139 332.3094Q434.0764 332.09064 433.842 331.71564Q433.60764 331.34064 433.60764 330.8719Q433.60764 330.46564 433.79514 330.10626Q433.98264 329.7469 434.31076 329.5125Q434.56076 329.34064 434.98264 329.21564Q435.4045 329.09064 435.9045 329.09064Q436.62326 329.09064 437.17014 329.3094Q437.73264 329.5125 437.99826 329.8719Q438.2639 330.23126 438.35764 330.825L437.3264 330.96564Q437.2639 330.4969 436.92014 330.23126Q436.592 329.95 435.967 329.95Q435.24826 329.95 434.93576 330.2Q434.62326 330.4344 434.62326 330.7625Q434.62326 330.96564 434.74826 331.1219Q434.8889 331.29376 435.1545 331.40314Q435.31076 331.46564 436.092 331.66876Q437.217 331.98126 437.6545 332.16876Q438.092 332.35626 438.342 332.71564Q438.592 333.075 438.592 333.6219Q438.592 334.15314 438.2795 334.6219Q437.98264 335.075 437.4045 335.34064Q436.8264 335.59064 436.092 335.59064Q434.87326 335.59064 434.23264 335.09064Q433.60764 334.575 433.43576 333.59064Z" fill-rule="nonzero"/><path fill="#000000" d="M488.01212 321.45L488.01212 312.85626L489.73087 312.85626L491.76212 318.9344Q492.04337 319.79376 492.16837 320.21564Q492.309 319.7469 492.6215 318.84064L494.684 312.85626L496.21524 312.85626L496.21524 321.45L495.1215 321.45L495.1215 314.2625L492.6215 321.45L491.59024 321.45L489.10587 314.1375L489.10587 321.45L488.01212 321.45ZM496.91837 314.075L496.91837 312.85626L497.98087 312.85626L497.98087 314.075L496.91837 314.075ZM496.91837 321.45L496.91837 315.23126L497.98087 315.23126L497.98087 321.45L496.91837 321.45ZM499.91837 321.45L499.91837 315.23126L500.85587 315.23126L500.85587 316.10626Q501.54337 315.09064 502.84024 315.09064Q503.40274 315.09064 503.8715 315.29376Q504.35587 315.4969 504.59024 315.825Q504.82462 316.15314 504.91837 316.59064Q504.96524 316.8875 504.96524 317.6219L504.96524 321.45L503.91837 321.45L503.91837 317.66876Q503.91837 317.0125 503.79337 316.7Q503.66837 316.3875 503.35587 316.2Q503.04337 315.9969 502.6215 315.9969Q501.94962 315.9969 501.44962 316.4344Q500.96524 316.85626 500.96524 318.04376L500.96524 321.45L499.91837 321.45ZM509.10587 321.45L512.4027 312.85626L513.62146 312.85626L517.1371 321.45L515.85583 321.45L514.8402 318.84064L511.26212 318.84064L510.309 321.45L509.10587 321.45ZM511.59024 317.91876L514.49646 317.91876L513.60583 315.54376Q513.18396 314.46564 512.99646 313.7625Q512.8246 314.59064 512.5277 315.40314L511.59024 317.91876ZM520.99646 321.45L520.99646 320.52814Q520.2621 321.59064 519.0121 321.59064Q518.4652 321.59064 517.98083 321.3875Q517.5121 321.16876 517.2777 320.85626Q517.04333 320.52814 516.9496 320.0594Q516.8871 319.7625 516.8871 319.075L516.8871 315.23126L517.9496 315.23126L517.9496 318.6844Q517.9496 319.4969 518.0121 319.79376Q518.10583 320.2 518.41833 320.45Q518.74646 320.6844 519.23083 320.6844Q519.6996 320.6844 520.10583 320.45Q520.5277 320.2 520.6996 319.77814Q520.8871 319.35626 520.8871 318.5594L520.8871 315.23126L521.93396 315.23126L521.93396 321.45L520.99646 321.45ZM526.2152 320.5125L526.37146 321.4344Q525.91833 321.52814 525.5746 321.52814Q524.99646 321.52814 524.68396 321.35626Q524.37146 321.16876 524.23083 320.8719Q524.10583 320.575 524.10583 319.6219L524.10583 316.04376L523.3402 316.04376L523.3402 315.23126L524.10583 315.23126L524.10583 313.6844L525.1527 313.0594L525.1527 315.23126L526.2152 315.23126L526.2152 316.04376L525.1527 316.04376L525.1527 319.6844Q525.1527 320.1375 525.1996 320.2625Q525.2621 320.3875 525.3871 320.46564Q525.5121 320.54376 525.74646 320.54376Q525.93396 320.54376 526.2152 320.5125ZM526.91833 314.075L526.91833 312.85626L527.98083 312.85626L527.98083 314.075L526.91833 314.075ZM526.91833 321.45L526.91833 315.23126L527.98083 315.23126L527.98083 321.45L526.91833 321.45ZM529.49646 319.59064L530.5277 319.4344Q530.62146 320.0594 531.0121 320.3875Q531.41833 320.71564 532.1527 320.71564Q532.87146 320.71564 533.2152 320.4344Q533.5746 320.1375 533.5746 319.73126Q533.5746 319.3719 533.2621 319.16876Q533.04333 319.02814 532.18396 318.8094Q531.0277 318.5125 530.5746 318.3094Q530.1371 318.09064 529.9027 317.71564Q529.66833 317.34064 529.66833 316.8719Q529.66833 316.46564 529.85583 316.10626Q530.04333 315.7469 530.37146 315.5125Q530.62146 315.34064 531.04333 315.21564Q531.4652 315.09064 531.9652 315.09064Q532.68396 315.09064 533.23083 315.3094Q533.79333 315.5125 534.05896 315.8719Q534.3246 316.23126 534.41833 316.825L533.3871 316.96564Q533.3246 316.4969 532.98083 316.23126Q532.6527 315.95 532.0277 315.95Q531.30896 315.95 530.99646 316.2Q530.68396 316.4344 530.68396 316.7625Q530.68396 316.96564 530.80896 317.1219Q530.9496 317.29376 531.2152 317.40314Q531.37146 317.46564 532.1527 317.66876Q533.2777 317.98126 533.7152 318.16876Q534.1527 318.35626 534.4027 318.71564Q534.6527 319.075 534.6527 319.6219Q534.6527 320.15314 534.3402 320.6219Q534.04333 321.075 533.4652 321.34064Q532.8871 321.59064 532.1527 321.59064Q530.93396 321.59064 530.29333 321.09064Q529.66833 320.575 529.49646 319.59064ZM539.2152 320.5125L539.37146 321.4344Q538.91833 321.52814 538.5746 321.52814Q537.99646 321.52814 537.68396 321.35626Q537.37146 321.16876 537.23083 320.8719Q537.10583 320.575 537.10583 319.6219L537.10583 316.04376L536.3402 316.04376L536.3402 315.23126L537.10583 315.23126L537.10583 313.6844L538.1527 313.0594L538.1527 315.23126L539.2152 315.23126L539.2152 316.04376L538.1527 316.04376L538.1527 319.6844Q538.1527 320.1375 538.1996 320.2625Q538.2621 320.3875 538.3871 320.46564Q538.5121 320.54376 538.74646 320.54376Q538.93396 320.54376 539.2152 320.5125ZM539.91833 314.075L539.91833 312.85626L540.98083 312.85626L540.98083 314.075L539.91833 314.075ZM539.91833 321.45L539.91833 315.23126L540.98083 315.23126L540.98083 321.45L539.91833 321.45ZM546.98083 319.16876L548.0121 319.3094Q547.8402 320.3719 547.1371 320.98126Q546.43396 321.59064 545.41833 321.59064Q544.1371 321.59064 543.35583 320.7625Q542.5902 319.91876 542.5902 318.35626Q542.5902 317.35626 542.91833 316.60626Q543.2621 315.84064 543.93396 315.46564Q544.62146 315.09064 545.43396 315.09064Q546.43396 315.09064 547.0746 315.60626Q547.73083 316.10626 547.91833 317.0594L546.8871 317.21564Q546.74646 316.59064 546.37146 316.27814Q545.99646 315.95 545.4652 315.95Q544.66833 315.95 544.16833 316.52814Q543.66833 317.09064 543.66833 318.325Q543.66833 319.59064 544.1527 320.15314Q544.6371 320.71564 545.4027 320.71564Q546.0277 320.71564 546.43396 320.34064Q546.85583 319.96564 546.98083 319.16876Z" fill-rule="nonzero"/><path fill="#000000" d="M500.60587 335.45L503.90274 326.85626L505.1215 326.85626L508.63712 335.45L507.35587 335.45L506.34024 332.84064L502.76212 332.84064L501.809 335.45L500.60587 335.45ZM503.09024 331.91876L505.9965 331.91876L505.10587 329.54376Q504.684 328.46564 504.4965 327.7625Q504.32462 328.59064 504.02774 329.40314L503.09024 331.91876ZM512.4496 335.45L512.4496 334.66876Q511.85587 335.59064 510.71524 335.59064Q509.96524 335.59064 509.34024 335.1844Q508.71524 334.7625 508.3715 334.02814Q508.02774 333.29376 508.02774 332.34064Q508.02774 331.41876 508.34024 330.65314Q508.65274 329.8875 509.27774 329.4969Q509.90274 329.09064 510.66837 329.09064Q511.23087 329.09064 511.66837 329.325Q512.10583 329.5594 512.3871 329.9344L512.3871 326.85626L513.43396 326.85626L513.43396 335.45L512.4496 335.45ZM509.1215 332.34064Q509.1215 333.54376 509.6215 334.1375Q510.1215 334.71564 510.809 334.71564Q511.4965 334.71564 511.98087 334.15314Q512.4652 333.59064 512.4652 332.4344Q512.4652 331.15314 511.96524 330.5594Q511.48087 329.96564 510.76212 329.96564Q510.059 329.96564 509.59024 330.54376Q509.1215 331.10626 509.1215 332.34064ZM519.49646 335.45L519.49646 334.52814Q518.7621 335.59064 517.5121 335.59064Q516.9652 335.59064 516.48083 335.3875Q516.0121 335.16876 515.7777 334.85626Q515.54333 334.52814 515.4496 334.0594Q515.3871 333.7625 515.3871 333.075L515.3871 329.23126L516.4496 329.23126L516.4496 332.6844Q516.4496 333.4969 516.5121 333.79376Q516.60583 334.2 516.91833 334.45Q517.24646 334.6844 517.73083 334.6844Q518.1996 334.6844 518.60583 334.45Q519.0277 334.2 519.1996 333.77814Q519.3871 333.35626 519.3871 332.5594L519.3871 329.23126L520.43396 329.23126L520.43396 335.45L519.49646 335.45ZM522.3871 335.45L522.3871 326.85626L523.4496 326.85626L523.4496 335.45L522.3871 335.45ZM527.7152 334.5125L527.87146 335.4344Q527.41833 335.52814 527.0746 335.52814Q526.49646 335.52814 526.18396 335.35626Q525.87146 335.16876 525.73083 334.8719Q525.60583 334.575 525.60583 333.6219L525.60583 330.04376L524.8402 330.04376L524.8402 329.23126L525.60583 329.23126L525.60583 327.6844L526.6527 327.0594L526.6527 329.23126L527.7152 329.23126L527.7152 330.04376L526.6527 330.04376L526.6527 333.6844Q526.6527 334.1375 526.6996 334.2625Q526.7621 334.3875 526.8871 334.46564Q527.0121 334.54376 527.24646 334.54376Q527.43396 334.54376 527.7152 334.5125ZM527.99646 333.59064L529.0277 333.4344Q529.12146 334.0594 529.5121 334.3875Q529.91833 334.71564 530.6527 334.71564Q531.37146 334.71564 531.7152 334.4344Q532.0746 334.1375 532.0746 333.73126Q532.0746 333.3719 531.7621 333.16876Q531.54333 333.02814 530.68396 332.8094Q529.5277 332.5125 529.0746 332.3094Q528.6371 332.09064 528.4027 331.71564Q528.16833 331.34064 528.16833 330.8719Q528.16833 330.46564 528.35583 330.10626Q528.54333 329.7469 528.87146 329.5125Q529.12146 329.34064 529.54333 329.21564Q529.9652 329.09064 530.4652 329.09064Q531.18396 329.09064 531.73083 329.3094Q532.29333 329.5125 532.55896 329.8719Q532.8246 330.23126 532.91833 330.825L531.8871 330.96564Q531.8246 330.4969 531.48083 330.23126Q531.1527 329.95 530.5277 329.95Q529.80896 329.95 529.49646 330.2Q529.18396 330.4344 529.18396 330.7625Q529.18396 330.96564 529.30896 331.1219Q529.4496 331.29376 529.7152 331.40314Q529.87146 331.46564 530.6527 331.66876Q531.7777 331.98126 532.2152 332.16876Q532.6527 332.35626 532.9027 332.71564Q533.1527 333.075 533.1527 333.6219Q533.1527 334.15314 532.8402 334.6219Q532.54333 335.075 531.9652 335.34064Q531.3871 335.59064 530.6527 335.59064Q529.43396 335.59064 528.79333 335.09064Q528.16833 334.575 527.99646 333.59064Z" fill-rule="nonzero"/></svg>